Comme-Light.ufo
<glyph name="quotedbl" format="1">
  <advance width="661"/>
  <unicode hex="0022"/>
  <outline>
    <contour>
      <point x="439" y="1019" type="line"/>
      <point x="511" y="1019" type="line"/>
      <point x="547" y="1521" type="line"/>
      <point x="385" y="1521" type="line"/>
    </contour>
    <contour>
      <point x="166" y="1019" type="line"/>
      <point x="238" y="1019" type="line"/>
      <point x="273" y="1521" type="line"/>
      <point x="112" y="1521" type="line"/>
    </contour>
  </outline>
</glyph>
<glyph name="numbersign" format="1">
  <advance width="1166"/>
  <unicode hex="0023"/>
  <outline>
    <contour>
      <point x="391" y="529" type="line"/>
      <point x="485" y="986" type="line"/>
      <point x="787" y="986" type="line"/>
      <point x="694" y="529" type="line"/>
    </contour>
    <contour>
      <point x="185" y="-16" type="line"/>
      <point x="281" y="-16" type="line"/>
      <point x="374" y="441" type="line"/>
      <point x="675" y="441" type="line"/>
      <point x="584" y="-16" type="line"/>
      <point x="678" y="-16" type="line"/>
      <point x="770" y="441" type="line"/>
      <point x="993" y="441" type="line"/>
      <point x="1008" y="529" type="line"/>
      <point x="789" y="529" type="line"/>
      <point x="882" y="986" type="line"/>
      <point x="1088" y="986" type="line"/>
      <point x="1102" y="1072" type="line"/>
      <point x="899" y="1072" type="line"/>
      <point x="998" y="1538" type="line"/>
      <point x="905" y="1538" type="line"/>
      <point x="805" y="1072" type="line"/>
      <point x="503" y="1072" type="line"/>
      <point x="602" y="1538" type="line"/>
      <point x="505" y="1538" type="line"/>
      <point x="405" y="1072" type="line"/>
      <point x="208" y="1072" type="line"/>
      <point x="196" y="986" type="line"/>
      <point x="387" y="986" type="line"/>
      <point x="294" y="529" type="line"/>
      <point x="101" y="529" type="line"/>
      <point x="89" y="441" type="line"/>
      <point x="277" y="441" type="line"/>
    </contour>
  </outline>
</glyph>
<glyph name="dollar" format="1">
  <advance width="1215"/>
  <unicode hex="0024"/>
  <outline>
    <contour>
      <point x="555" y="34" type="line"/>
      <point x="555" y="-305" type="line"/>
      <point x="661" y="-305" type="line"/>
      <point x="676" y="34" type="line"/>
    </contour>
    <contour>
      <point x="573" y="1754" type="line"/>
      <point x="559" y="1430" type="line"/>
      <point x="684" y="1430" type="line"/>
      <point x="684" y="1754" type="line"/>
    </contour>
    <component base="S"/>
  </outline>
</glyph>
<glyph name="ampersand" format="1">
  <advance width="1436"/>
  <unicode hex="0026"/>
  <outline>
    <contour>
      <point x="615" y="1365" type="curve" smooth="yes"/>
      <point x="754" y="1365"/>
      <point x="830" y="1290"/>
      <point x="830" y="1163" type="curve" smooth="yes"/>
      <point x="830" y="1006"/>
      <point x="684" y="922"/>
      <point x="529" y="843" type="curve"/>
      <point x="405" y="986"/>
      <point x="369" y="1062"/>
      <point x="369" y="1161" type="curve" smooth="yes"/>
      <point x="369" y="1281"/>
      <point x="473" y="1365"/>
    </contour>
    <contour>
      <point x="117" y="382" type="curve" smooth="yes"/>
      <point x="117" y="143"/>
      <point x="288" y="-20"/>
      <point x="578" y="-20" type="curve" smooth="yes"/>
      <point x="767" y="-20"/>
      <point x="914" y="59"/>
      <point x="1029" y="169" type="curve"/>
      <point x="1217" y="-21" type="line"/>
      <point x="1299" y="66" type="line"/>
      <point x="1109" y="256" type="line"/>
      <point x="1215" y="386"/>
      <point x="1288" y="537"/>
      <point x="1342" y="650" type="curve"/>
      <point x="1247" y="712" type="line"/>
      <point x="1167" y="554"/>
      <point x="1094" y="432"/>
      <point x="1024" y="341" type="curve"/>
      <point x="605" y="761" type="line"/>
      <point x="787" y="855"/>
      <point x="962" y="958"/>
      <point x="962" y="1165" type="curve" smooth="yes"/>
      <point x="962" y="1364"/>
      <point x="819" y="1476"/>
      <point x="617" y="1476" type="curve" smooth="yes"/>
      <point x="395" y="1476"/>
      <point x="241" y="1348"/>
      <point x="241" y="1160" type="curve" smooth="yes"/>
      <point x="241" y="1036"/>
      <point x="286" y="932"/>
      <point x="420" y="788" type="curve"/>
      <point x="226" y="688"/>
      <point x="117" y="582"/>
    </contour>
    <contour>
      <point x="602" y="100" type="curve" smooth="yes"/>
      <point x="380" y="100"/>
      <point x="262" y="209"/>
      <point x="262" y="393" type="curve" smooth="yes"/>
      <point x="262" y="538"/>
      <point x="341" y="622"/>
      <point x="496" y="707" type="curve"/>
      <point x="946" y="252" type="line"/>
      <point x="836" y="141"/>
      <point x="728" y="100"/>
    </contour>
  </outline>
</glyph>
<glyph name="quotesingle" format="1">
  <advance width="358"/>
  <unicode hex="0027"/>
  <outline>
    <contour>
      <point x="129" y="970" type="line"/>
      <point x="219" y="970" type="line"/>
      <point x="243" y="1490" type="line"/>
      <point x="93" y="1490" type="line"/>
    </contour>
  </outline>
</glyph>
<glyph name="plus" format="1">
  <advance width="1139"/>
  <unicode hex="002B"/>
  <outline>
    <contour>
      <point x="490" y="1135" type="line"/>
      <point x="490" y="753" type="line"/>
      <point x="127" y="753" type="line"/>
      <point x="127" y="610" type="line"/>
      <point x="489" y="610" type="line"/>
      <point x="489" y="221" type="line"/>
      <point x="640" y="221" type="line"/>
      <point x="640" y="610" type="line"/>
      <point x="997" y="610" type="line"/>
      <point x="997" y="753" type="line"/>
      <point x="640" y="753" type="line"/>
      <point x="640" y="1135" type="line"/>
    </contour>
  </outline>
</glyph>
<glyph name="comma" format="1">
  <advance width="589"/>
  <unicode hex="002C"/>
  <outline>
    <contour>
      <point x="186" y="-299" type="curve"/>
      <point x="271" y="-299" type="line"/>
      <point x="271" y="-299"/>
      <point x="380" y="145"/>
      <point x="380" y="155" type="curve" smooth="yes"/>
      <point x="380" y="227" type="line"/>
      <point x="220" y="227" type="line"/>
      <point x="220" y="202"/>
      <point x="186" y="-299"/>
    </contour>
  </outline>
</glyph>
<glyph name="hyphen" format="1">
  <advance width="843"/>
  <unicode hex="002D"/>
  <outline>
    <contour>
      <point x="168" y="535" type="line"/>
      <point x="661" y="535" type="line"/>
      <point x="661" y="655" type="line"/>
      <point x="168" y="655" type="line"/>
    </contour>
  </outline>
</glyph>
<glyph name="period" format="1">
  <advance width="588"/>
  <unicode hex="002E"/>
  <outline>
    <contour>
      <point x="298" y="-13" type="curve" smooth="yes"/>
      <point x="367" y="-13"/>
      <point x="393" y="30"/>
      <point x="393" y="98" type="curve" smooth="yes"/>
      <point x="393" y="163"/>
      <point x="367" y="205"/>
      <point x="298" y="205" type="curve" smooth="yes"/>
      <point x="226" y="205"/>
      <point x="202" y="163"/>
      <point x="202" y="98" type="curve" smooth="yes"/>
      <point x="202" y="30"/>
      <point x="226" y="-13"/>
    </contour>
  </outline>
</glyph>
<glyph name="slash" format="1">
  <advance width="976"/>
  <unicode hex="002F"/>
  <outline>
    <contour>
      <point x="134" y="-144" type="line"/>
      <point x="258" y="-144" type="line"/>
      <point x="895" y="1560" type="line"/>
      <point x="767" y="1560" type="line"/>
    </contour>
  </outline>
</glyph>
<glyph name="zero" format="1">
  <advance width="1245"/>
  <unicode hex="0030"/>
  <outline>
    <contour>
      <point x="627" y="-20" type="curve" smooth="yes"/>
      <point x="964" y="-20"/>
      <point x="1105" y="257"/>
      <point x="1105" y="708" type="curve" smooth="yes"/>
      <point x="1105" y="1184"/>
      <point x="946" y="1476"/>
      <point x="627" y="1476" type="curve" smooth="yes"/>
      <point x="308" y="1476"/>
      <point x="138" y="1182"/>
      <point x="138" y="708" type="curve" smooth="yes"/>
      <point x="138" y="257"/>
      <point x="290" y="-20"/>
    </contour>
    <contour>
      <point x="627" y="110" type="curve" smooth="yes"/>
      <point x="424" y="110"/>
      <point x="288" y="266"/>
      <point x="288" y="712" type="curve" smooth="yes"/>
      <point x="288" y="721" type="line" smooth="yes"/>
      <point x="288" y="1139"/>
      <point x="425" y="1347"/>
      <point x="627" y="1347" type="curve" smooth="yes"/>
      <point x="830" y="1347"/>
      <point x="956" y="1169"/>
      <point x="956" y="713" type="curve" smooth="yes"/>
      <point x="956" y="267"/>
      <point x="830" y="110"/>
    </contour>
  </outline>
</glyph>
<glyph name="two" format="1">
  <advance width="1238"/>
  <unicode hex="0032"/>
  <outline>
    <contour>
      <point x="245" y="1225" type="line"/>
      <point x="327" y="1305"/>
      <point x="455" y="1350"/>
      <point x="577" y="1350" type="curve" smooth="yes"/>
      <point x="730" y="1350"/>
      <point x="896" y="1275"/>
      <point x="896" y="1062" type="curve" smooth="yes"/>
      <point x="896" y="884"/>
      <point x="828" y="821"/>
      <point x="681" y="676" type="curve" smooth="yes"/>
      <point x="134" y="135" type="line"/>
      <point x="163" y="0" type="line"/>
      <point x="1021" y="0" type="line"/>
      <point x="1029" y="128" type="line"/>
      <point x="309" y="128" type="line"/>
      <point x="776" y="581" type="line" smooth="yes"/>
      <point x="971" y="770"/>
      <point x="1041" y="857"/>
      <point x="1041" y="1070" type="curve" smooth="yes"/>
      <point x="1041" y="1358"/>
      <point x="794" y="1476"/>
      <point x="578" y="1476" type="curve" smooth="yes"/>
      <point x="418" y="1476"/>
      <point x="254" y="1417"/>
      <point x="158" y="1316" type="curve"/>
      <point x="228" y="1225" type="line"/>
    </contour>
  </outline>
</glyph>
<glyph name="five" format="1">
  <advance width="1238"/>
  <unicode hex="0035"/>
  <outline>
    <contour>
      <point x="654" y="810" type="curve" smooth="yes"/>
      <point x="856" y="810"/>
      <point x="953" y="640"/>
      <point x="953" y="466" type="curve" smooth="yes"/>
      <point x="953" y="274"/>
      <point x="829" y="110"/>
      <point x="605" y="110" type="curve" smooth="yes"/>
      <point x="465" y="110"/>
      <point x="366" y="160"/>
      <point x="276" y="262" type="curve"/>
      <point x="262" y="262" type="line"/>
      <point x="177" y="174" type="line"/>
      <point x="251" y="80"/>
      <point x="405" y="-20"/>
      <point x="605" y="-20" type="curve" smooth="yes"/>
      <point x="934" y="-20"/>
      <point x="1114" y="209"/>
      <point x="1114" y="470" type="curve" smooth="yes"/>
      <point x="1114" y="703"/>
      <point x="965" y="928"/>
      <point x="672" y="928" type="curve" smooth="yes"/>
      <point x="555" y="928"/>
      <point x="470" y="889"/>
      <point x="394" y="824" type="curve"/>
      <point x="440" y="1334" type="line"/>
      <point x="1011" y="1334" type="line"/>
      <point x="1027" y="1456" type="line"/>
      <point x="297" y="1456" type="line"/>
      <point x="252" y="705" type="line"/>
      <point x="380" y="687" type="line"/>
      <point x="444" y="765"/>
      <point x="547" y="810"/>
    </contour>
  </outline>
</glyph>
<glyph name="six" format="1">
  <advance width="1238"/>
  <unicode hex="0036"/>
  <outline>
    <contour>
      <point x="640" y="102" type="curve" smooth="yes"/>
      <point x="430" y="102"/>
      <point x="321" y="259"/>
      <point x="321" y="433" type="curve" smooth="yes"/>
      <point x="321" y="687"/>
      <point x="523" y="760"/>
      <point x="647" y="760" type="curve" smooth="yes"/>
      <point x="847" y="760"/>
      <point x="961" y="623"/>
      <point x="961" y="440" type="curve" smooth="yes"/>
      <point x="961" y="263"/>
      <point x="849" y="102"/>
    </contour>
    <contour>
      <point x="643" y="-20" type="curve" smooth="yes"/>
      <point x="930" y="-20"/>
      <point x="1106" y="188"/>
      <point x="1106" y="440" type="curve" smooth="yes"/>
      <point x="1106" y="705"/>
      <point x="922" y="880"/>
      <point x="695" y="880" type="curve" smooth="yes"/>
      <point x="569" y="880"/>
      <point x="474" y="829"/>
      <point x="406" y="769" type="curve"/>
      <point x="563" y="993"/>
      <point x="723" y="1214"/>
      <point x="882" y="1436" type="curve"/>
      <point x="882" y="1456" type="line"/>
      <point x="727" y="1456" type="line"/>
      <point x="401" y="1004" type="line" smooth="yes"/>
      <point x="260" y="807"/>
      <point x="178" y="665"/>
      <point x="178" y="443" type="curve" smooth="yes"/>
      <point x="178" y="206"/>
      <point x="341" y="-20"/>
    </contour>
  </outline>
</glyph>
<glyph name="seven" format="1">
  <advance width="1238"/>
  <unicode hex="0037"/>
  <outline>
    <contour>
      <point x="355" y="0" type="line"/>
      <point x="502" y="0" type="line"/>
      <point x="1055" y="1346" type="line"/>
      <point x="1055" y="1456" type="line"/>
      <point x="177" y="1456" type="line"/>
      <point x="199" y="1333" type="line"/>
      <point x="901" y="1333" type="line"/>
    </contour>
  </outline>
</glyph>
<glyph name="colon" format="1">
  <advance width="615"/>
  <unicode hex="003A"/>
  <outline>
    <contour>
      <point x="301" y="-12" type="curve" smooth="yes"/>
      <point x="380" y="-12"/>
      <point x="410" y="45"/>
      <point x="410" y="101" type="curve" smooth="yes"/>
      <point x="410" y="156"/>
      <point x="380" y="215"/>
      <point x="301" y="215" type="curve" smooth="yes"/>
      <point x="221" y="215"/>
      <point x="189" y="156"/>
      <point x="189" y="101" type="curve" smooth="yes"/>
      <point x="189" y="45"/>
      <point x="223" y="-12"/>
    </contour>
    <contour>
      <point x="301" y="850" type="curve" smooth="yes"/>
      <point x="380" y="850"/>
      <point x="410" y="907"/>
      <point x="410" y="963" type="curve" smooth="yes"/>
      <point x="410" y="1018"/>
      <point x="380" y="1077"/>
      <point x="301" y="1077" type="curve" smooth="yes"/>
      <point x="221" y="1077"/>
      <point x="189" y="1018"/>
      <point x="189" y="963" type="curve" smooth="yes"/>
      <point x="189" y="907"/>
      <point x="223" y="850"/>
    </contour>
  </outline>
</glyph>
<glyph name="less" format="1">
  <advance width="1131"/>
  <unicode hex="003C"/>
  <outline>
    <contour>
      <point x="1018" y="129" type="line"/>
      <point x="1019" y="261" type="line"/>
      <point x="252" y="629" type="line"/>
      <point x="1019" y="1022" type="line"/>
      <point x="1019" y="1154" type="line"/>
      <point x="87" y="666" type="line"/>
      <point x="87" y="583" type="line"/>
    </contour>
  </outline>
</glyph>
<glyph name="equal" format="1">
  <advance width="1052"/>
  <unicode hex="003D"/>
  <outline>
    <contour>
      <point x="131" y="556" type="line"/>
      <point x="131" y="424" type="line"/>
      <point x="928" y="424" type="line"/>
      <point x="928" y="556" type="line"/>
    </contour>
    <contour>
      <point x="131" y="939" type="line"/>
      <point x="131" y="807" type="line"/>
      <point x="928" y="807" type="line"/>
      <point x="928" y="939" type="line"/>
    </contour>
  </outline>
</glyph>
<glyph name="question" format="1">
  <advance width="907"/>
  <unicode hex="003F"/>
  <outline>
    <contour>
      <point x="370" y="-14" type="curve" smooth="yes"/>
      <point x="448" y="-14"/>
      <point x="479" y="39"/>
      <point x="479" y="95" type="curve" smooth="yes"/>
      <point x="479" y="148"/>
      <point x="448" y="202"/>
      <point x="370" y="202" type="curve" smooth="yes"/>
      <point x="292" y="202"/>
      <point x="261" y="148"/>
      <point x="261" y="95" type="curve" smooth="yes"/>
      <point x="261" y="41"/>
      <point x="292" y="-14"/>
    </contour>
    <contour>
      <point x="333" y="417" type="curve"/>
      <point x="408" y="417" type="line"/>
      <point x="508" y="785"/>
      <point x="744" y="854"/>
      <point x="744" y="1150" type="curve" smooth="yes"/>
      <point x="744" y="1383"/>
      <point x="590" y="1485"/>
      <point x="409" y="1485" type="curve" smooth="yes"/>
      <point x="286" y="1485"/>
      <point x="188" y="1445"/>
      <point x="116" y="1391" type="curve"/>
      <point x="144" y="1273" type="line"/>
      <point x="185" y="1301"/>
      <point x="285" y="1360"/>
      <point x="392" y="1360" type="curve" smooth="yes"/>
      <point x="521" y="1360"/>
      <point x="598" y="1292"/>
      <point x="598" y="1144" type="curve" smooth="yes"/>
      <point x="598" y="914"/>
      <point x="339" y="709"/>
    </contour>
  </outline>
</glyph>
<glyph name="at" format="1">
  <advance width="1975"/>
  <unicode hex="0040"/>
  <outline>
    <contour>
      <point x="912" y="312" type="curve" smooth="yes"/>
      <point x="785" y="312"/>
      <point x="728" y="411"/>
      <point x="728" y="573" type="curve" smooth="yes"/>
      <point x="728" y="810"/>
      <point x="861" y="978"/>
      <point x="1052" y="978" type="curve" smooth="yes"/>
      <point x="1083" y="978"/>
      <point x="1153" y="967"/>
      <point x="1201" y="956" type="curve"/>
      <point x="1156" y="687" type="line"/>
      <point x="1123" y="483"/>
      <point x="1066" y="312"/>
    </contour>
    <contour>
      <point x="962" y="-213" type="curve" smooth="yes"/>
      <point x="1156" y="-213"/>
      <point x="1347" y="-163"/>
      <point x="1477" y="-74" type="curve"/>
      <point x="1438" y="20" type="line"/>
      <point x="1301" y="-66"/>
      <point x="1132" y="-100"/>
      <point x="965" y="-100" type="curve" smooth="yes"/>
      <point x="545" y="-100"/>
      <point x="294" y="174"/>
      <point x="294" y="601" type="curve" smooth="yes"/>
      <point x="294" y="1041"/>
      <point x="587" y="1373"/>
      <point x="1024" y="1373" type="curve" smooth="yes"/>
      <point x="1448" y="1373"/>
      <point x="1677" y="1107"/>
      <point x="1677" y="751" type="curve" smooth="yes"/>
      <point x="1677" y="482"/>
      <point x="1554" y="323"/>
      <point x="1423" y="323" type="curve" smooth="yes"/>
      <point x="1338" y="323"/>
      <point x="1283" y="393"/>
      <point x="1283" y="482" type="curve" smooth="yes"/>
      <point x="1283" y="609"/>
      <point x="1314" y="780"/>
      <point x="1348" y="1005" type="curve"/>
      <point x="1260" y="1046"/>
      <point x="1135" y="1075"/>
      <point x="1038" y="1075" type="curve" smooth="yes"/>
      <point x="751" y="1075"/>
      <point x="598" y="824"/>
      <point x="598" y="564" type="curve" smooth="yes"/>
      <point x="598" y="356"/>
      <point x="708" y="205"/>
      <point x="895" y="205" type="curve" smooth="yes"/>
      <point x="1039" y="205"/>
      <point x="1135" y="317"/>
      <point x="1186" y="442" type="curve"/>
      <point x="1213" y="293"/>
      <point x="1294" y="214"/>
      <point x="1423" y="214" type="curve" smooth="yes"/>
      <point x="1597" y="214"/>
      <point x="1794" y="393"/>
      <point x="1794" y="744" type="curve" smooth="yes"/>
      <point x="1794" y="1199"/>
      <point x="1465" y="1483"/>
      <point x="1030" y="1483" type="curve" smooth="yes"/>
      <point x="526" y="1483"/>
      <point x="160" y="1110"/>
      <point x="160" y="603" type="curve" smooth="yes"/>
      <point x="160" y="95"/>
      <point x="484" y="-213"/>
    </contour>
  </outline>
</glyph>
<glyph name="A" format="1">
  <advance width="1379"/>
  <unicode hex="0041"/>
  <outline>
    <contour>
      <point x="613" y="1456" type="line"/>
      <point x="61" y="0" type="line"/>
      <point x="216" y="0" type="line"/>
      <point x="393" y="473" type="line"/>
      <point x="987" y="473" type="line"/>
      <point x="1164" y="0" type="line"/>
      <point x="1318" y="0" type="line"/>
      <point x="761" y="1456" type="line"/>
    </contour>
    <contour>
      <point x="432" y="586" type="line"/>
      <point x="688" y="1291" type="line"/>
      <point x="948" y="586" type="line"/>
    </contour>
    <contour>
      <point x="686" y="1456" type="move" name="top"/>
    </contour>
    <contour>
      <point x="688" y="0" type="move" name="bot"/>
    </contour>
  </outline>
</glyph>
<glyph name="B" format="1">
  <advance width="1366"/>
  <unicode hex="0042"/>
  <outline>
    <contour>
      <point x="556" y="-11" type="curve" smooth="yes"/>
      <point x="1053" y="-11"/>
      <point x="1233" y="120"/>
      <point x="1233" y="425" type="curve" smooth="yes"/>
      <point x="1233" y="606"/>
      <point x="1143" y="734"/>
      <point x="929" y="785" type="curve"/>
      <point x="1124" y="847"/>
      <point x="1178" y="963"/>
      <point x="1178" y="1100" type="curve" smooth="yes"/>
      <point x="1178" y="1259"/>
      <point x="1150" y="1465"/>
      <point x="607" y="1465" type="curve" smooth="yes"/>
      <point x="497" y="1465"/>
      <point x="366" y="1456"/>
      <point x="209" y="1437" type="curve"/>
      <point x="209" y="6" type="line"/>
      <point x="339" y="-5"/>
      <point x="454" y="-11"/>
    </contour>
    <contour>
      <point x="367" y="1334" type="line"/>
      <point x="463" y="1343"/>
      <point x="546" y="1348"/>
      <point x="617" y="1348" type="curve" smooth="yes"/>
      <point x="941" y="1348"/>
      <point x="1037" y="1265"/>
      <point x="1037" y="1091" type="curve" smooth="yes"/>
      <point x="1037" y="879"/>
      <point x="873" y="840"/>
      <point x="678" y="840" type="curve" smooth="yes"/>
      <point x="367" y="840" type="line"/>
    </contour>
    <contour>
      <point x="367" y="724" type="line"/>
      <point x="652" y="724" type="line" smooth="yes"/>
      <point x="946" y="724"/>
      <point x="1077" y="638"/>
      <point x="1077" y="418" type="curve" smooth="yes"/>
      <point x="1077" y="239"/>
      <point x="1037" y="111"/>
      <point x="588" y="111" type="curve" smooth="yes"/>
      <point x="523" y="111"/>
      <point x="450" y="113"/>
      <point x="367" y="118" type="curve"/>
    </contour>
    <contour>
      <point x="661" y="1456" type="move" name="top"/>
    </contour>
  </outline>
</glyph>
<glyph name="C" format="1">
  <advance width="1395"/>
  <unicode hex="0043"/>
  <outline>
    <contour>
      <point x="1314" y="1116" type="line"/>
      <point x="1254" y="1365"/>
      <point x="1015" y="1477"/>
      <point x="796" y="1477" type="curve" smooth="yes"/>
      <point x="411" y="1477"/>
      <point x="154" y="1202"/>
      <point x="154" y="729" type="curve" smooth="yes"/>
      <point x="154" y="256"/>
      <point x="411" y="-19"/>
      <point x="796" y="-19" type="curve" smooth="yes"/>
      <point x="1015" y="-19"/>
      <point x="1257" y="92"/>
      <point x="1318" y="342" type="curve"/>
      <point x="1206" y="382" type="line"/>
      <point x="1191" y="382" type="line"/>
      <point x="1148" y="217"/>
      <point x="986" y="109"/>
      <point x="804" y="109" type="curve" smooth="yes"/>
      <point x="507" y="109"/>
      <point x="313" y="325"/>
      <point x="313" y="729" type="curve" smooth="yes"/>
      <point x="313" y="1134"/>
      <point x="508" y="1349"/>
      <point x="806" y="1349" type="curve" smooth="yes"/>
      <point x="987" y="1349"/>
      <point x="1145" y="1239"/>
      <point x="1188" y="1075" type="curve"/>
      <point x="1203" y="1075" type="line"/>
    </contour>
    <contour>
      <point x="776" y="1456" type="move" name="top"/>
    </contour>
    <contour>
      <point x="793" y="1" type="move" name="bot"/>
    </contour>
  </outline>
</glyph>
<glyph name="E" format="1">
  <advance width="1268"/>
  <unicode hex="0045"/>
  <outline>
    <contour>
      <point x="209" y="1456" type="line"/>
      <point x="209" y="0" type="line"/>
      <point x="1140" y="0" type="line"/>
      <point x="1151" y="123" type="line"/>
      <point x="367" y="123" type="line"/>
      <point x="367" y="691" type="line"/>
      <point x="1068" y="691" type="line"/>
      <point x="1068" y="813" type="line"/>
      <point x="367" y="813" type="line"/>
      <point x="367" y="1334" type="line"/>
      <point x="1135" y="1334" type="line"/>
      <point x="1140" y="1456" type="line"/>
    </contour>
    <contour>
      <point x="720" y="1456" type="move" name="top"/>
    </contour>
    <contour>
      <point x="683" y="0" type="move" name="bot"/>
    </contour>
  </outline>
</glyph>
<glyph name="F" format="1">
  <advance width="1174"/>
  <unicode hex="0046"/>
  <outline>
    <contour>
      <point x="209" y="1456" type="line"/>
      <point x="209" y="0" type="line"/>
      <point x="368" y="0" type="line"/>
      <point x="368" y="673" type="line"/>
      <point x="1036" y="673" type="line"/>
      <point x="1036" y="790" type="line"/>
      <point x="368" y="790" type="line"/>
      <point x="368" y="1332" type="line"/>
      <point x="1121" y="1332" type="line"/>
      <point x="1130" y="1456" type="line"/>
    </contour>
    <contour>
      <point x="696" y="1456" type="move" name="top"/>
    </contour>
  </outline>
</glyph>
<glyph name="G" format="1">
  <advance width="1470"/>
  <unicode hex="0047"/>
  <outline>
    <contour>
      <point x="827" y="-20" type="curve" smooth="yes"/>
      <point x="1024" y="-20"/>
      <point x="1176" y="13"/>
      <point x="1321" y="70" type="curve"/>
      <point x="1321" y="754" type="line"/>
      <point x="850" y="754" type="line"/>
      <point x="840" y="643" type="line"/>
      <point x="1173" y="626" type="line"/>
      <point x="1173" y="152" type="line"/>
      <point x="1099" y="131"/>
      <point x="991" y="109"/>
      <point x="856" y="109" type="curve" smooth="yes"/>
      <point x="464" y="109"/>
      <point x="313" y="359"/>
      <point x="313" y="735" type="curve" smooth="yes"/>
      <point x="313" y="1106"/>
      <point x="515" y="1348"/>
      <point x="855" y="1348" type="curve" smooth="yes"/>
      <point x="1028" y="1348"/>
      <point x="1159" y="1281"/>
      <point x="1236" y="1213" type="curve"/>
      <point x="1250" y="1213" type="line"/>
      <point x="1319" y="1309" type="line"/>
      <point x="1220" y="1407"/>
      <point x="1048" y="1475"/>
      <point x="851" y="1475" type="curve" smooth="yes"/>
      <point x="422" y="1475"/>
      <point x="154" y="1186"/>
      <point x="154" y="734" type="curve" smooth="yes"/>
      <point x="154" y="297"/>
      <point x="374" y="-20"/>
    </contour>
    <contour>
      <point x="808" y="1456" type="move" name="top"/>
    </contour>
    <contour>
      <point x="821" y="1" type="move" name="bot"/>
    </contour>
  </outline>
</glyph>
<glyph name="K" format="1">
  <advance width="1292"/>
  <unicode hex="004B"/>
  <outline>
    <contour>
      <point x="1253" y="1456" type="line"/>
      <point x="1080" y="1456" type="line"/>
      <point x="367" y="743" type="line"/>
      <point x="367" y="1456" type="line"/>
      <point x="209" y="1456" type="line"/>
      <point x="209" y="0" type="line"/>
      <point x="367" y="0" type="line"/>
      <point x="367" y="595" type="line"/>
      <point x="527" y="751" type="line"/>
      <point x="1112" y="0" type="line"/>
      <point x="1290" y="0" type="line"/>
      <point x="1290" y="17" type="line"/>
      <point x="644" y="835" type="line"/>
      <point x="1253" y="1437" type="line"/>
    </contour>
    <contour>
      <point x="668" y="1456" type="move" name="top"/>
    </contour>
    <contour>
      <point x="670" y="0" type="move" name="bot"/>
    </contour>
  </outline>
</glyph>
<glyph name="L" format="1">
  <advance width="1090"/>
  <unicode hex="004C"/>
  <outline>
    <contour>
      <point x="209" y="1456" type="line"/>
      <point x="209" y="0" type="line"/>
      <point x="1073" y="0" type="line"/>
      <point x="1076" y="123" type="line"/>
      <point x="367" y="123" type="line"/>
      <point x="367" y="1456" type="line"/>
    </contour>
    <contour>
      <point x="468" y="1456" type="move" name="top"/>
    </contour>
    <contour>
      <point x="641" y="0" type="move" name="bot"/>
    </contour>
  </outline>
</glyph>
<glyph name="R" format="1">
  <advance width="1342"/>
  <unicode hex="0052"/>
  <outline>
    <contour>
      <point x="1222" y="1080" type="curve" smooth="yes"/>
      <point x="1222" y="1350"/>
      <point x="1088" y="1463"/>
      <point x="651" y="1463" type="curve" smooth="yes"/>
      <point x="529" y="1463"/>
      <point x="383" y="1454"/>
      <point x="209" y="1437" type="curve"/>
      <point x="209" y="0" type="line"/>
      <point x="367" y="0" type="line"/>
      <point x="367" y="686" type="line"/>
      <point x="759" y="687" type="line"/>
      <point x="1096" y="0" type="line"/>
      <point x="1261" y="0" type="line"/>
      <point x="1261" y="19" type="line"/>
      <point x="917" y="703" type="line"/>
      <point x="1115" y="750"/>
      <point x="1222" y="866"/>
    </contour>
    <contour>
      <point x="367" y="1335" type="line"/>
      <point x="479" y="1344"/>
      <point x="573" y="1349"/>
      <point x="653" y="1349" type="curve" smooth="yes"/>
      <point x="1011" y="1349"/>
      <point x="1077" y="1256"/>
      <point x="1077" y="1079" type="curve" smooth="yes"/>
      <point x="1077" y="879"/>
      <point x="1003" y="798"/>
      <point x="669" y="798" type="curve" smooth="yes"/>
      <point x="367" y="798" type="line"/>
    </contour>
    <contour>
      <point x="703" y="1456" type="move" name="top"/>
    </contour>
    <contour>
      <point x="711" y="0" type="move" name="bot"/>
    </contour>
  </outline>
</glyph>
<glyph name="S" format="1">
  <advance width="1215"/>
  <unicode hex="0053"/>
  <outline>
    <contour>
      <point x="945" y="386" type="curve" smooth="yes"/>
      <point x="945" y="183"/>
      <point x="802" y="108"/>
      <point x="598" y="108" type="curve" smooth="yes"/>
      <point x="447" y="108"/>
      <point x="315" y="154"/>
      <point x="217" y="247" type="curve"/>
      <point x="206" y="247" type="line"/>
      <point x="124" y="160" type="line"/>
      <point x="196" y="74"/>
      <point x="359" y="-20"/>
      <point x="598" y="-20" type="curve" smooth="yes"/>
      <point x="840" y="-20"/>
      <point x="1092" y="74"/>
      <point x="1092" y="384" type="curve" smooth="yes"/>
      <point x="1092" y="637"/>
      <point x="946" y="705"/>
      <point x="718" y="796" type="curve" smooth="yes"/>
      <point x="505" y="882" type="line"/>
      <point x="336" y="953"/>
      <point x="286" y="988"/>
      <point x="286" y="1114" type="curve" smooth="yes"/>
      <point x="286" y="1296"/>
      <point x="446" y="1350"/>
      <point x="620" y="1350" type="curve" smooth="yes"/>
      <point x="776" y="1350"/>
      <point x="900" y="1291"/>
      <point x="973" y="1215" type="curve"/>
      <point x="986" y="1215" type="line"/>
      <point x="1062" y="1307" type="line"/>
      <point x="967" y="1411"/>
      <point x="804" y="1476"/>
      <point x="622" y="1476" type="curve" smooth="yes"/>
      <point x="377" y="1476"/>
      <point x="129" y="1398"/>
      <point x="129" y="1094" type="curve" smooth="yes"/>
      <point x="129" y="893"/>
      <point x="246" y="833"/>
      <point x="449" y="750" type="curve" smooth="yes"/>
      <point x="657" y="664" type="line" smooth="yes"/>
      <point x="877" y="574"/>
      <point x="945" y="532"/>
    </contour>
    <contour>
      <point x="619" y="1472" type="move" name="top"/>
    </contour>
    <contour>
      <point x="624" y="0" type="move" name="bot"/>
    </contour>
  </outline>
</glyph>
<glyph name="T" format="1">
  <advance width="1133"/>
  <unicode hex="0054"/>
  <outline>
    <contour>
      <point x="13" y="1456" type="line"/>
      <point x="13" y="1335" type="line"/>
      <point x="486" y="1335" type="line"/>
      <point x="486" y="0" type="line"/>
      <point x="644" y="0" type="line"/>
      <point x="644" y="1335" type="line"/>
      <point x="1120" y="1335" type="line"/>
      <point x="1120" y="1456" type="line"/>
    </contour>
    <contour>
      <point x="569" y="1456" type="move" name="top"/>
    </contour>
    <contour>
      <point x="570" y="0" type="move" name="bot"/>
    </contour>
  </outline>
</glyph>
<glyph name="W" format="1">
  <advance width="1996"/>
  <unicode hex="0057"/>
  <outline>
    <contour>
      <point x="1008" y="1236" type="line"/>
      <point x="1369" y="0" type="line"/>
      <point x="1523" y="0" type="line"/>
      <point x="1919" y="1456" type="line"/>
      <point x="1767" y="1456" type="line"/>
      <point x="1446" y="197" type="line"/>
      <point x="1084" y="1421" type="line"/>
      <point x="929" y="1421" type="line"/>
      <point x="567" y="209" type="line"/>
      <point x="216" y="1456" type="line"/>
      <point x="77" y="1456" type="line"/>
      <point x="486" y="0" type="line"/>
      <point x="636" y="0" type="line"/>
    </contour>
    <contour>
      <point x="1008" y="1456" type="move" name="top"/>
    </contour>
    <contour>
      <point x="1005" y="0" type="move" name="bot"/>
    </contour>
  </outline>
</glyph>
<glyph name="Y" format="1">
  <advance width="1332"/>
  <unicode hex="0059"/>
  <outline>
    <contour>
      <point x="751" y="531" type="line"/>
      <point x="1252" y="1456" type="line"/>
      <point x="1098" y="1456" type="line"/>
      <point x="672" y="665" type="line"/>
      <point x="224" y="1456" type="line"/>
      <point x="80" y="1456" type="line"/>
      <point x="594" y="533" type="line"/>
      <point x="594" y="0" type="line"/>
      <point x="751" y="0" type="line"/>
    </contour>
    <contour>
      <point x="667" y="1456" type="move" name="top"/>
    </contour>
  </outline>
</glyph>
<glyph name="Z" format="1">
  <advance width="1186"/>
  <unicode hex="005A"/>
  <outline>
    <contour>
      <point x="102" y="0" type="line"/>
      <point x="1109" y="0" type="line"/>
      <point x="1118" y="123" type="line"/>
      <point x="276" y="123" type="line"/>
      <point x="1111" y="1343" type="line"/>
      <point x="1103" y="1456" type="line"/>
      <point x="138" y="1456" type="line"/>
      <point x="138" y="1334" type="line"/>
      <point x="937" y="1334" type="line"/>
      <point x="102" y="118" type="line"/>
    </contour>
    <contour>
      <point x="667" y="1456" type="move" name="top"/>
    </contour>
    <contour>
      <point x="652" y="0" type="move" name="bot"/>
    </contour>
  </outline>
</glyph>
<glyph name="underscore" format="1">
  <advance width="887"/>
  <unicode hex="005F"/>
  <outline>
    <contour>
      <point x="0" y="-257" type="line"/>
      <point x="887" y="-257" type="line"/>
      <point x="887" y="-145" type="line"/>
      <point x="0" y="-145" type="line"/>
    </contour>
  </outline>
</glyph>
<glyph name="grave" format="1">
  <advance width="890"/>
  <unicode hex="0060"/>
  <outline>
    <contour>
      <point x="400" y="1209" type="line"/>
      <point x="499" y="1209" type="line"/>
      <point x="298" y="1578" type="line"/>
      <point x="100" y="1578" type="line"/>
    </contour>
    <contour>
      <point x="452" y="1062" type="move" name="_top"/>
    </contour>
  </outline>
</glyph>
<glyph name="a" format="1">
  <advance width="1116"/>
  <unicode hex="0061"/>
  <outline>
    <contour>
      <point x="483" y="94" type="curve" smooth="yes"/>
      <point x="359" y="94"/>
      <point x="262" y="144"/>
      <point x="262" y="289" type="curve" smooth="yes"/>
      <point x="262" y="421"/>
      <point x="328" y="495"/>
      <point x="583" y="495" type="curve" smooth="yes"/>
      <point x="588" y="495" type="line"/>
      <point x="806" y="493" type="line"/>
      <point x="806" y="255" type="line"/>
      <point x="726" y="150"/>
      <point x="614" y="94"/>
    </contour>
    <contour>
      <point x="116" y="290" type="curve" smooth="yes"/>
      <point x="116" y="84"/>
      <point x="257" y="-20"/>
      <point x="465" y="-20" type="curve" smooth="yes"/>
      <point x="608" y="-20"/>
      <point x="724" y="28"/>
      <point x="818" y="145" type="curve"/>
      <point x="829" y="0" type="line"/>
      <point x="955" y="0" type="line"/>
      <point x="955" y="716" type="line" smooth="yes"/>
      <point x="955" y="1003"/>
      <point x="790" y="1105"/>
      <point x="550" y="1105" type="curve" smooth="yes"/>
      <point x="411" y="1105"/>
      <point x="258" y="1072"/>
      <point x="160" y="1008" type="curve"/>
      <point x="208" y="890" type="line"/>
      <point x="308" y="959"/>
      <point x="446" y="990"/>
      <point x="552" y="990" type="curve" smooth="yes"/>
      <point x="721" y="990"/>
      <point x="806" y="908"/>
      <point x="806" y="728" type="curve" smooth="yes"/>
      <point x="806" y="595" type="line"/>
      <point x="573" y="598" type="line"/>
      <point x="561" y="598" type="line" smooth="yes"/>
      <point x="239" y="598"/>
      <point x="116" y="483"/>
    </contour>
    <contour>
      <point x="558" y="1083" type="move" name="top"/>
    </contour>
    <contour>
      <point x="498" y="1" type="move" name="bot"/>
    </contour>
  </outline>
</glyph>
<glyph name="e" format="1">
  <advance width="1127"/>
  <unicode hex="0065"/>
  <outline>
    <contour>
      <point x="273" y="623" type="line"/>
      <point x="293" y="845"/>
      <point x="422" y="990"/>
      <point x="612" y="990" type="curve" smooth="yes"/>
      <point x="800" y="990"/>
      <point x="886" y="857"/>
      <point x="890" y="623" type="curve"/>
    </contour>
    <contour>
      <point x="1009" y="522" type="line"/>
      <point x="1009" y="526"/>
      <point x="1017" y="596"/>
      <point x="1017" y="623" type="curve" smooth="yes"/>
      <point x="1017" y="923"/>
      <point x="861" y="1105"/>
      <point x="607" y="1105" type="curve" smooth="yes"/>
      <point x="342" y="1105"/>
      <point x="117" y="900"/>
      <point x="117" y="538" type="curve" smooth="yes"/>
      <point x="117" y="193"/>
      <point x="337" y="-20"/>
      <point x="623" y="-20" type="curve" smooth="yes"/>
      <point x="773" y="-20"/>
      <point x="895" y="23"/>
      <point x="987" y="82" type="curve"/>
      <point x="950" y="185" type="line"/>
      <point x="938" y="185" type="line"/>
      <point x="846" y="133"/>
      <point x="764" y="95"/>
      <point x="642" y="95" type="curve" smooth="yes"/>
      <point x="439" y="95"/>
      <point x="283" y="222"/>
      <point x="269" y="522" type="curve"/>
    </contour>
    <contour>
      <point x="609" y="1082" type="move" name="top"/>
    </contour>
    <contour>
      <point x="616" y="1" type="move" name="bot"/>
    </contour>
  </outline>
</glyph>
<glyph name="f" format="1">
  <advance width="748"/>
  <unicode hex="0066"/>
  <outline>
    <contour>
      <point x="713" y="1500" type="line"/>
      <point x="713" y="1500"/>
      <point x="640" y="1516"/>
      <point x="566" y="1516" type="curve" smooth="yes"/>
      <point x="374" y="1516"/>
      <point x="271" y="1452"/>
      <point x="271" y="1164" type="curve" smooth="yes"/>
      <point x="271" y="1079" type="line"/>
      <point x="76" y="1066" type="line"/>
      <point x="71" y="990" type="line"/>
      <point x="271" y="990" type="line"/>
      <point x="271" y="0" type="line"/>
      <point x="420" y="0" type="line"/>
      <point x="420" y="990" type="line"/>
      <point x="691" y="990" type="line"/>
      <point x="691" y="1082" type="line"/>
      <point x="420" y="1082" type="line"/>
      <point x="420" y="1164" type="line" smooth="yes"/>
      <point x="420" y="1365"/>
      <point x="460" y="1404"/>
      <point x="598" y="1404" type="curve" smooth="yes"/>
      <point x="636" y="1404"/>
      <point x="702" y="1397"/>
      <point x="702" y="1397" type="curve"/>
    </contour>
    <contour>
      <point x="394" y="1456" type="move" name="top"/>
    </contour>
  </outline>
</glyph>
<glyph name="g" format="1">
  <advance width="1213"/>
  <unicode hex="0067"/>
  <outline>
    <contour>
      <point x="596" y="99" type="curve" smooth="yes"/>
      <point x="367" y="99"/>
      <point x="270" y="288"/>
      <point x="270" y="543" type="curve" smooth="yes"/>
      <point x="270" y="795"/>
      <point x="368" y="991"/>
      <point x="595" y="991" type="curve" smooth="yes"/>
      <point x="745" y="991"/>
      <point x="840" y="920"/>
      <point x="902" y="825" type="curve"/>
      <point x="902" y="247" type="line"/>
      <point x="849" y="168"/>
      <point x="747" y="99"/>
    </contour>
    <contour>
      <point x="590" y="-16" type="curve" smooth="yes"/>
      <point x="703" y="-16"/>
      <point x="823" y="21"/>
      <point x="903" y="113" type="curve"/>
      <point x="903" y="22" type="line" smooth="yes"/>
      <point x="903" y="-264"/>
      <point x="791" y="-356"/>
      <point x="560" y="-356" type="curve" smooth="yes"/>
      <point x="465" y="-356"/>
      <point x="350" y="-334"/>
      <point x="275" y="-302" type="curve"/>
      <point x="256" y="-302" type="line"/>
      <point x="244" y="-422" type="line"/>
      <point x="317" y="-450"/>
      <point x="437" y="-476"/>
      <point x="560" y="-476" type="curve" smooth="yes"/>
      <point x="927" y="-476"/>
      <point x="1046" y="-292"/>
      <point x="1046" y="62" type="curve" smooth="yes"/>
      <point x="1046" y="1082" type="line"/>
      <point x="920" y="1082" type="line"/>
      <point x="912" y="957" type="line"/>
      <point x="848" y="1042"/>
      <point x="743" y="1105"/>
      <point x="595" y="1105" type="curve" smooth="yes"/>
      <point x="280" y="1105"/>
      <point x="117" y="862"/>
      <point x="117" y="542" type="curve" smooth="yes"/>
      <point x="117" y="228"/>
      <point x="273" y="-16"/>
    </contour>
    <contour>
      <point x="607" y="1082" type="move" name="top"/>
    </contour>
  </outline>
</glyph>
<glyph name="h" format="1">
  <advance width="1199"/>
  <unicode hex="0068"/>
  <outline>
    <contour>
      <point x="174" y="0" type="line"/>
      <point x="323" y="0" type="line"/>
      <point x="323" y="606" type="line" smooth="yes"/>
      <point x="323" y="789"/>
      <point x="399" y="991"/>
      <point x="661" y="991" type="curve" smooth="yes"/>
      <point x="829" y="991"/>
      <point x="891" y="881"/>
      <point x="891" y="667" type="curve" smooth="yes"/>
      <point x="891" y="0" type="line"/>
      <point x="1042" y="0" type="line"/>
      <point x="1042" y="671" type="line" smooth="yes"/>
      <point x="1042" y="945"/>
      <point x="917" y="1105"/>
      <point x="684" y="1105" type="curve" smooth="yes"/>
      <point x="532" y="1105"/>
      <point x="395" y="1052"/>
      <point x="318" y="886" type="curve"/>
      <point x="323" y="1141" type="line"/>
      <point x="323" y="1560" type="line"/>
      <point x="174" y="1540" type="line"/>
    </contour>
    <contour>
      <point x="657" y="1363" type="move" name="top"/>
    </contour>
  </outline>
</glyph>
<glyph name="j" format="1">
  <advance width="565"/>
  <unicode hex="006A"/>
  <outline>
    <contour>
      <point x="433" y="1422" type="curve" smooth="yes"/>
      <point x="433" y="1491"/>
      <point x="393" y="1532"/>
      <point x="319" y="1532" type="curve" smooth="yes"/>
      <point x="245" y="1532"/>
      <point x="205" y="1491"/>
      <point x="205" y="1422" type="curve" smooth="yes"/>
      <point x="205" y="1352"/>
      <point x="245" y="1310"/>
      <point x="319" y="1310" type="curve" smooth="yes"/>
      <point x="393" y="1310"/>
      <point x="433" y="1352"/>
    </contour>
    <contour>
      <point x="241" y="1082" type="line"/>
      <point x="241" y="28" type="line" smooth="yes"/>
      <point x="241" y="-165"/>
      <point x="238" y="-208"/>
      <point x="88" y="-232" type="curve"/>
      <point x="31" y="-242" type="line"/>
      <point x="45" y="-364" type="line"/>
      <point x="104" y="-358" type="line" smooth="yes"/>
      <point x="307" y="-337"/>
      <point x="390" y="-264"/>
      <point x="390" y="-12" type="curve" smooth="yes"/>
      <point x="390" y="1082" type="line"/>
    </contour>
  </outline>
</glyph>
<glyph name="k" format="1">
  <advance width="1079"/>
  <unicode hex="006B"/>
  <outline>
    <contour>
      <point x="174" y="0" type="line"/>
      <point x="324" y="0" type="line"/>
      <point x="324" y="397" type="line"/>
      <point x="455" y="510" type="line"/>
      <point x="888" y="0" type="line"/>
      <point x="1052" y="0" type="line"/>
      <point x="1052" y="20" type="line"/>
      <point x="557" y="585" type="line"/>
      <point x="1024" y="1062" type="line"/>
      <point x="1024" y="1082" type="line"/>
      <point x="854" y="1082" type="line"/>
      <point x="318" y="527" type="line"/>
      <point x="324" y="743" type="line"/>
      <point x="324" y="1560" type="line"/>
      <point x="174" y="1540" type="line"/>
    </contour>
    <contour>
      <point x="588" y="0" type="move" name="bot"/>
    </contour>
  </outline>
</glyph>
<glyph name="m" format="1">
  <advance width="1815"/>
  <unicode hex="006D"/>
  <outline>
    <contour>
      <point x="990" y="607" type="line" smooth="yes"/>
      <point x="990" y="843"/>
      <point x="1136" y="991"/>
      <point x="1299" y="991" type="curve" smooth="yes"/>
      <point x="1480" y="991"/>
      <point x="1508" y="822"/>
      <point x="1508" y="659" type="curve" smooth="yes"/>
      <point x="1508" y="0" type="line"/>
      <point x="1658" y="0" type="line"/>
      <point x="1658" y="691" type="line" smooth="yes"/>
      <point x="1658" y="965"/>
      <point x="1543" y="1105"/>
      <point x="1320" y="1105" type="curve" smooth="yes"/>
      <point x="1165" y="1105"/>
      <point x="1029" y="1029"/>
      <point x="959" y="847" type="curve"/>
      <point x="921" y="1003"/>
      <point x="817" y="1105"/>
      <point x="648" y="1105" type="curve" smooth="yes"/>
      <point x="507" y="1105"/>
      <point x="383" y="1037"/>
      <point x="313" y="872" type="curve"/>
      <point x="296" y="1082" type="line"/>
      <point x="172" y="1082" type="line"/>
      <point x="172" y="0" type="line"/>
      <point x="322" y="0" type="line"/>
      <point x="322" y="646" type="line"/>
      <point x="343" y="832"/>
      <point x="438" y="991"/>
      <point x="627" y="991" type="curve" smooth="yes"/>
      <point x="786" y="991"/>
      <point x="840" y="873"/>
      <point x="840" y="630" type="curve" smooth="yes"/>
      <point x="840" y="0" type="line"/>
      <point x="990" y="0" type="line"/>
    </contour>
    <contour>
      <point x="945" y="1082" type="move" name="top"/>
    </contour>
  </outline>
</glyph>
<glyph name="p" format="1">
  <advance width="1212"/>
  <unicode hex="0070"/>
  <outline>
    <contour>
      <point x="627" y="95" type="curve" smooth="yes"/>
      <point x="488" y="95"/>
      <point x="379" y="153"/>
      <point x="315" y="264" type="curve"/>
      <point x="315" y="558" type="line" smooth="yes"/>
      <point x="315" y="809"/>
      <point x="408" y="991"/>
      <point x="644" y="991" type="curve" smooth="yes"/>
      <point x="863" y="991"/>
      <point x="941" y="806"/>
      <point x="941" y="540" type="curve" smooth="yes"/>
      <point x="941" y="267"/>
      <point x="843" y="95"/>
    </contour>
    <contour>
      <point x="172" y="-463" type="line"/>
      <point x="322" y="-461" type="line"/>
      <point x="322" y="-75" type="line"/>
      <point x="316" y="105" type="line"/>
      <point x="386" y="25"/>
      <point x="495" y="-20"/>
      <point x="634" y="-20" type="curve" smooth="yes"/>
      <point x="916" y="-20"/>
      <point x="1095" y="205"/>
      <point x="1095" y="539" type="curve" smooth="yes"/>
      <point x="1095" y="885"/>
      <point x="950" y="1105"/>
      <point x="660" y="1105" type="curve" smooth="yes"/>
      <point x="491" y="1105"/>
      <point x="367" y="1019"/>
      <point x="311" y="851" type="curve"/>
      <point x="295" y="1082" type="line"/>
      <point x="172" y="1082" type="line"/>
    </contour>
    <contour>
      <point x="664" y="1082" type="move" name="top"/>
    </contour>
  </outline>
</glyph>
<glyph name="r" format="1">
  <advance width="768"/>
  <unicode hex="0072"/>
  <outline>
    <contour>
      <point x="174" y="0" type="line"/>
      <point x="323" y="0" type="line"/>
      <point x="323" y="620" type="line" smooth="yes"/>
      <point x="323" y="811"/>
      <point x="433" y="973"/>
      <point x="651" y="973" type="curve" smooth="yes"/>
      <point x="654" y="973"/>
      <point x="690" y="972"/>
      <point x="694" y="971" type="curve"/>
      <point x="706" y="1091" type="line"/>
      <point x="684" y="1095"/>
      <point x="661" y="1096"/>
      <point x="630" y="1096" type="curve" smooth="yes"/>
      <point x="503" y="1096"/>
      <point x="384" y="1035"/>
      <point x="308" y="846" type="curve"/>
      <point x="291" y="1082" type="line"/>
      <point x="174" y="1082" type="line"/>
    </contour>
    <contour>
      <point x="460" y="1082" type="move" name="top"/>
    </contour>
    <contour>
      <point x="276" y="0" type="move" name="bot"/>
    </contour>
  </outline>
</glyph>
<glyph name="u" format="1">
  <advance width="1194"/>
  <unicode hex="0075"/>
  <outline>
    <contour>
      <point x="873" y="249" type="line"/>
      <point x="828" y="188"/>
      <point x="738" y="92"/>
      <point x="556" y="92" type="curve" smooth="yes"/>
      <point x="374" y="92"/>
      <point x="307" y="209"/>
      <point x="307" y="396" type="curve" smooth="yes"/>
      <point x="307" y="1082" type="line"/>
      <point x="157" y="1082" type="line"/>
      <point x="157" y="408" type="line" smooth="yes"/>
      <point x="157" y="119"/>
      <point x="291" y="-20"/>
      <point x="544" y="-20" type="curve" smooth="yes"/>
      <point x="705" y="-20"/>
      <point x="812" y="39"/>
      <point x="884" y="135" type="curve"/>
      <point x="893" y="0" type="line"/>
      <point x="1022" y="0" type="line"/>
      <point x="1022" y="1082" type="line"/>
      <point x="873" y="1082" type="line"/>
    </contour>
    <contour>
      <point x="609" y="1083" type="move" name="top"/>
    </contour>
    <contour>
      <point x="563" y="1" type="move" name="bot"/>
    </contour>
  </outline>
</glyph>
<glyph name="v" format="1">
  <advance width="1070"/>
  <unicode hex="0076"/>
  <outline>
    <contour>
      <point x="462" y="0" type="line"/>
      <point x="616" y="0" type="line"/>
      <point x="1008" y="1082" type="line"/>
      <point x="858" y="1082" type="line"/>
      <point x="753" y="778"/>
      <point x="648" y="474"/>
      <point x="540" y="172" type="curve"/>
      <point x="430" y="472"/>
      <point x="324" y="777"/>
      <point x="218" y="1082" type="curve"/>
      <point x="66" y="1082" type="line"/>
    </contour>
  </outline>
</glyph>
<glyph name="w" format="1">
  <advance width="1506"/>
  <unicode hex="0077"/>
  <outline>
    <contour>
      <point x="757" y="938" type="line"/>
      <point x="1057" y="0" type="line"/>
      <point x="1188" y="0" type="line"/>
      <point x="1472" y="1082" type="line"/>
      <point x="1335" y="1082" type="line"/>
      <point x="1120" y="201" type="line"/>
      <point x="834" y="1076" type="line"/>
      <point x="673" y="1076" type="line"/>
      <point x="403" y="203" type="line"/>
      <point x="174" y="1082" type="line"/>
      <point x="34" y="1082" type="line"/>
      <point x="329" y="0" type="line"/>
      <point x="461" y="0" type="line"/>
    </contour>
    <contour>
      <point x="756" y="1082" type="move" name="top"/>
    </contour>
  </outline>
</glyph>
<glyph name="y" format="1">
  <advance width="1118"/>
  <unicode hex="0079"/>
  <outline>
    <contour>
      <point x="1062" y="1082" type="line"/>
      <point x="918" y="1082" type="line"/>
      <point x="577" y="208" type="line"/>
      <point x="210" y="1082" type="line"/>
      <point x="52" y="1082" type="line"/>
      <point x="504" y="37" type="line"/>
      <point x="348" y="-375" type="line"/>
      <point x="477" y="-408" type="line"/>
    </contour>
    <contour>
      <point x="580" y="1082" type="move" name="top"/>
    </contour>
  </outline>
</glyph>
<glyph name="asciitilde" format="1">
  <advance width="1197"/>
  <unicode hex="007E"/>
  <outline>
    <contour>
      <point x="132" y="496" type="line"/>
      <point x="179" y="586"/>
      <point x="263" y="661"/>
      <point x="352" y="661" type="curve" smooth="yes"/>
      <point x="423" y="661"/>
      <point x="501" y="624"/>
      <point x="610" y="576" type="curve" smooth="yes"/>
      <point x="690" y="539"/>
      <point x="762" y="511"/>
      <point x="828" y="511" type="curve" smooth="yes"/>
      <point x="949" y="511"/>
      <point x="1020" y="585"/>
      <point x="1068" y="712" type="curve"/>
      <point x="1026" y="793" type="line"/>
      <point x="994" y="708"/>
      <point x="912" y="630"/>
      <point x="828" y="630" type="curve" smooth="yes"/>
      <point x="767" y="630"/>
      <point x="686" y="672"/>
      <point x="589" y="714" type="curve" smooth="yes"/>
      <point x="486" y="760"/>
      <point x="433" y="782"/>
      <point x="354" y="782" type="curve" smooth="yes"/>
      <point x="229" y="782"/>
      <point x="142" y="696"/>
      <point x="98" y="585" type="curve"/>
    </contour>
  </outline>
</glyph>
<glyph name="cent" format="1">
  <advance width="1061"/>
  <unicode hex="00A2"/>
  <outline>
    <contour>
      <point x="539" y="29" type="line"/>
      <point x="539" y="-305" type="line"/>
      <point x="646" y="-305" type="line"/>
      <point x="662" y="29" type="line"/>
    </contour>
    <contour>
      <point x="548" y="1387" type="line"/>
      <point x="537" y="1062" type="line"/>
      <point x="652" y="1062" type="line"/>
      <point x="652" y="1387" type="line"/>
    </contour>
    <component base="c"/>
  </outline>
</glyph>
<glyph name="sterling" format="1">
  <advance width="1157"/>
  <unicode hex="00A3"/>
  <outline>
    <contour>
      <point x="418" y="947" type="line" smooth="yes"/>
      <point x="418" y="1208"/>
      <point x="502" y="1349"/>
      <point x="686" y="1349" type="curve" smooth="yes"/>
      <point x="800" y="1349"/>
      <point x="870" y="1302"/>
      <point x="943" y="1241" type="curve"/>
      <point x="958" y="1241" type="line"/>
      <point x="1015" y="1341" type="line"/>
      <point x="946" y="1408"/>
      <point x="844" y="1476"/>
      <point x="676" y="1476" type="curve" smooth="yes"/>
      <point x="335" y="1476"/>
      <point x="263" y="1204"/>
      <point x="263" y="935" type="curve" smooth="yes"/>
      <point x="263" y="795" type="line"/>
      <point x="87" y="795" type="line"/>
      <point x="87" y="685" type="line"/>
      <point x="263" y="685" type="line"/>
      <point x="263" y="118" type="line"/>
      <point x="86" y="102" type="line"/>
      <point x="98" y="0" type="line"/>
      <point x="1013" y="0" type="line"/>
      <point x="1025" y="120" type="line"/>
      <point x="418" y="120" type="line"/>
      <point x="418" y="685" type="line"/>
      <point x="811" y="685" type="line"/>
      <point x="811" y="795" type="line"/>
      <point x="418" y="795" type="line"/>
    </contour>
  </outline>
</glyph>
<glyph name="currency" format="1">
  <advance width="1225"/>
  <unicode hex="00A4"/>
  <outline>
    <contour>
      <point x="919" y="716" type="curve" smooth="yes"/>
      <point x="919" y="540"/>
      <point x="802" y="388"/>
      <point x="605" y="388" type="curve" smooth="yes"/>
      <point x="411" y="388"/>
      <point x="292" y="539"/>
      <point x="292" y="716" type="curve" smooth="yes"/>
      <point x="292" y="893"/>
      <point x="411" y="1045"/>
      <point x="605" y="1045" type="curve" smooth="yes"/>
      <point x="801" y="1045"/>
      <point x="919" y="892"/>
    </contour>
    <contour>
      <point x="868" y="1032" type="line"/>
      <point x="797" y="1093"/>
      <point x="705" y="1128"/>
      <point x="605" y="1128" type="curve" smooth="yes"/>
      <point x="506" y="1128"/>
      <point x="415" y="1095"/>
      <point x="341" y="1033" type="curve"/>
      <point x="161" y="1206" type="line"/>
      <point x="103" y="1147" type="line"/>
      <point x="286" y="968" type="line"/>
      <point x="230" y="895"/>
      <point x="203" y="808"/>
      <point x="203" y="716" type="curve" smooth="yes"/>
      <point x="203" y="623"/>
      <point x="230" y="538"/>
      <point x="286" y="464" type="curve"/>
      <point x="104" y="288" type="line"/>
      <point x="161" y="227" type="line"/>
      <point x="343" y="401" type="line"/>
      <point x="415" y="339"/>
      <point x="504" y="306"/>
      <point x="605" y="306" type="curve" smooth="yes"/>
      <point x="706" y="306"/>
      <point x="796" y="339"/>
      <point x="868" y="400" type="curve"/>
      <point x="1050" y="226" type="line"/>
      <point x="1105" y="287" type="line"/>
      <point x="926" y="464" type="line"/>
      <point x="980" y="535"/>
      <point x="1008" y="621"/>
      <point x="1008" y="716" type="curve" smooth="yes"/>
      <point x="1008" y="806"/>
      <point x="981" y="891"/>
      <point x="925" y="968" type="curve"/>
      <point x="1106" y="1144" type="line"/>
      <point x="1050" y="1206" type="line"/>
    </contour>
  </outline>
</glyph>
<glyph name="yen" format="1">
  <advance width="1337"/>
  <unicode hex="00A5"/>
  <outline>
    <contour>
      <point x="263" y="531" type="line"/>
      <point x="1057" y="531" type="line"/>
      <point x="1057" y="629" type="line"/>
      <point x="263" y="629" type="line"/>
    </contour>
    <contour>
      <point x="263" y="272" type="line"/>
      <point x="1057" y="272" type="line"/>
      <point x="1057" y="370" type="line"/>
      <point x="263" y="370" type="line"/>
    </contour>
    <component base="Y"/>
  </outline>
</glyph>
<glyph name="brokenbar" format="1">
  <advance width="534"/>
  <unicode hex="00A6"/>
  <outline>
    <contour>
      <point x="212" y="1557" type="line"/>
      <point x="212" y="817" type="line"/>
      <point x="324" y="817" type="line"/>
      <point x="324" y="1557" type="line"/>
    </contour>
    <contour>
      <point x="212" y="551" type="line"/>
      <point x="212" y="-192" type="line"/>
      <point x="324" y="-192" type="line"/>
      <point x="324" y="551" type="line"/>
    </contour>
  </outline>
</glyph>
<glyph name="section" format="1">
  <advance width="1071"/>
  <unicode hex="00A7"/>
  <outline>
    <contour>
      <point x="686" y="548" type="curve"/>
      <point x="662" y="559"/>
      <point x="610" y="578"/>
      <point x="495" y="613" type="curve" smooth="yes"/>
      <point x="341" y="665"/>
      <point x="306" y="688"/>
      <point x="306" y="780" type="curve" smooth="yes"/>
      <point x="306" y="851"/>
      <point x="339" y="895"/>
      <point x="391" y="923" type="curve"/>
      <point x="399" y="919"/>
      <point x="433" y="906"/>
      <point x="535" y="873" type="curve" smooth="yes"/>
      <point x="689" y="822"/>
      <point x="752" y="770"/>
      <point x="752" y="688" type="curve" smooth="yes"/>
      <point x="752" y="618"/>
      <point x="719" y="578"/>
    </contour>
    <contour>
      <point x="515" y="-34" type="curve" smooth="yes"/>
      <point x="710" y="-34"/>
      <point x="880" y="55"/>
      <point x="880" y="270" type="curve" smooth="yes"/>
      <point x="880" y="362"/>
      <point x="854" y="431"/>
      <point x="791" y="483" type="curve"/>
      <point x="847" y="531"/>
      <point x="882" y="594"/>
      <point x="882" y="685" type="curve" smooth="yes"/>
      <point x="882" y="839"/>
      <point x="819" y="913"/>
      <point x="587" y="989" type="curve" smooth="yes"/>
      <point x="349" y="1068"/>
      <point x="306" y="1091"/>
      <point x="306" y="1194" type="curve" smooth="yes"/>
      <point x="306" y="1301"/>
      <point x="378" y="1364"/>
      <point x="540" y="1364" type="curve" smooth="yes"/>
      <point x="646" y="1364"/>
      <point x="743" y="1328"/>
      <point x="806" y="1297" type="curve"/>
      <point x="841" y="1405" type="line"/>
      <point x="750" y="1448"/>
      <point x="645" y="1476"/>
      <point x="525" y="1476" type="curve" smooth="yes"/>
      <point x="304" y="1476"/>
      <point x="170" y="1363"/>
      <point x="170" y="1191" type="curve" smooth="yes"/>
      <point x="170" y="1104"/>
      <point x="197" y="1037"/>
      <point x="272" y="983" type="curve"/>
      <point x="209" y="934"/>
      <point x="171" y="864"/>
      <point x="171" y="777" type="curve" smooth="yes"/>
      <point x="171" y="642"/>
      <point x="230" y="568"/>
      <point x="434" y="501" type="curve" smooth="yes"/>
      <point x="705" y="413"/>
      <point x="749" y="358"/>
      <point x="749" y="272" type="curve" smooth="yes"/>
      <point x="749" y="142"/>
      <point x="659" y="78"/>
      <point x="525" y="78" type="curve" smooth="yes"/>
      <point x="412" y="78"/>
      <point x="307" y="108"/>
      <point x="192" y="164" type="curve"/>
      <point x="188" y="42" type="line"/>
      <point x="289" y="-6"/>
      <point x="406" y="-34"/>
    </contour>
  </outline>
</glyph>
<glyph name="dieresis" format="1">
  <advance width="891"/>
  <unicode hex="00A8"/>
  <outline>
    <contour>
      <point x="640" y="1308" type="curve" smooth="yes"/>
      <point x="707" y="1308"/>
      <point x="733" y="1352"/>
      <point x="733" y="1403" type="curve" smooth="yes"/>
      <point x="733" y="1454"/>
      <point x="707" y="1499"/>
      <point x="640" y="1499" type="curve" smooth="yes"/>
      <point x="571" y="1499"/>
      <point x="546" y="1454"/>
      <point x="546" y="1403" type="curve" smooth="yes"/>
      <point x="546" y="1352"/>
      <point x="573" y="1308"/>
    </contour>
    <contour>
      <point x="227" y="1308" type="curve" smooth="yes"/>
      <point x="295" y="1308"/>
      <point x="320" y="1352"/>
      <point x="320" y="1403" type="curve" smooth="yes"/>
      <point x="320" y="1454"/>
      <point x="295" y="1499"/>
      <point x="227" y="1499" type="curve" smooth="yes"/>
      <point x="158" y="1499"/>
      <point x="134" y="1454"/>
      <point x="134" y="1403" type="curve" smooth="yes"/>
      <point x="134" y="1352"/>
      <point x="160" y="1308"/>
    </contour>
    <contour>
      <point x="444" y="1082" type="move" name="_top"/>
    </contour>
  </outline>
</glyph>
<glyph name="copyright" format="1">
  <advance width="1758"/>
  <unicode hex="00A9"/>
  <outline>
    <contour>
      <point x="799" y="-26" type="curve" smooth="yes"/>
      <point x="1182" y="-26"/>
      <point x="1575" y="227"/>
      <point x="1575" y="734" type="curve" smooth="yes"/>
      <point x="1575" y="1243"/>
      <point x="1181" y="1496"/>
      <point x="799" y="1496" type="curve" smooth="yes"/>
      <point x="420" y="1496"/>
      <point x="36" y="1243"/>
      <point x="36" y="734" type="curve" smooth="yes"/>
      <point x="36" y="227"/>
      <point x="420" y="-26"/>
    </contour>
    <contour>
      <point x="799" y="54" type="curve" smooth="yes"/>
      <point x="464" y="54"/>
      <point x="130" y="282"/>
      <point x="130" y="734" type="curve" smooth="yes"/>
      <point x="130" y="1187"/>
      <point x="464" y="1414"/>
      <point x="799" y="1414" type="curve" smooth="yes"/>
      <point x="1136" y="1414"/>
      <point x="1473" y="1187"/>
      <point x="1473" y="734" type="curve" smooth="yes"/>
      <point x="1473" y="283"/>
      <point x="1136" y="54"/>
    </contour>
    <contour>
      <point x="824" y="232" type="curve" smooth="yes"/>
      <point x="922" y="232"/>
      <point x="1020" y="259"/>
      <point x="1108" y="316" type="curve"/>
      <point x="1076" y="396" type="line"/>
      <point x="987" y="342"/>
      <point x="908" y="324"/>
      <point x="826" y="324" type="curve" smooth="yes"/>
      <point x="621" y="324"/>
      <point x="454" y="482"/>
      <point x="454" y="738" type="curve" smooth="yes"/>
      <point x="454" y="973"/>
      <point x="620" y="1139"/>
      <point x="818" y="1139" type="curve" smooth="yes"/>
      <point x="892" y="1139"/>
      <point x="988" y="1113"/>
      <point x="1063" y="1057" type="curve"/>
      <point x="1105" y="1141" type="line"/>
      <point x="1014" y="1202"/>
      <point x="915" y="1231"/>
      <point x="815" y="1231" type="curve" smooth="yes"/>
      <point x="556" y="1231"/>
      <point x="336" y="1019"/>
      <point x="336" y="733" type="curve" smooth="yes"/>
      <point x="336" y="438"/>
      <point x="562" y="232"/>
    </contour>
  </outline>
</glyph>
<glyph name="guillemotleft" format="1">
  <advance width="998"/>
  <unicode hex="00AB"/>
  <outline>
    <contour>
      <point x="723" y="151" type="line"/>
      <point x="859" y="154" type="line"/>
      <point x="586" y="550" type="line"/>
      <point x="866" y="942" type="line"/>
      <point x="726" y="945" type="line"/>
      <point x="442" y="547" type="line"/>
    </contour>
    <contour>
      <point x="379" y="151" type="line"/>
      <point x="515" y="154" type="line"/>
      <point x="243" y="550" type="line"/>
      <point x="523" y="942" type="line"/>
      <point x="383" y="945" type="line"/>
      <point x="98" y="547" type="line"/>
    </contour>
  </outline>
</glyph>
<glyph name="logicalnot" format="1">
  <advance width="1243"/>
  <unicode hex="00AC"/>
  <outline>
    <contour>
      <point x="106" y="799" type="line"/>
      <point x="106" y="682" type="line"/>
      <point x="951" y="682" type="line"/>
      <point x="951" y="255" type="line"/>
      <point x="1061" y="255" type="line"/>
      <point x="1061" y="799" type="line"/>
    </contour>
  </outline>
</glyph>
<glyph name="uni00AD" format="1">
  <advance width="925"/>
  <unicode hex="00AD"/>
  <outline>
    <contour>
      <point x="106" y="446" type="line"/>
      <point x="815" y="446" type="line"/>
      <point x="815" y="567" type="line"/>
      <point x="106" y="567" type="line"/>
    </contour>
  </outline>
</glyph>
<glyph name="registered" format="1">
  <advance width="1872"/>
  <unicode hex="00AE"/>
  <outline>
    <contour>
      <point x="933" y="-25" type="curve" smooth="yes"/>
      <point x="1307" y="-25"/>
      <point x="1691" y="228"/>
      <point x="1691" y="735" type="curve" smooth="yes"/>
      <point x="1691" y="1242"/>
      <point x="1307" y="1496"/>
      <point x="933" y="1496" type="curve" smooth="yes"/>
      <point x="560" y="1496"/>
      <point x="178" y="1242"/>
      <point x="178" y="735" type="curve" smooth="yes"/>
      <point x="178" y="228"/>
      <point x="560" y="-25"/>
    </contour>
    <contour>
      <point x="933" y="54" type="curve" smooth="yes"/>
      <point x="604" y="54"/>
      <point x="278" y="283"/>
      <point x="278" y="735" type="curve" smooth="yes"/>
      <point x="278" y="1187"/>
      <point x="604" y="1416"/>
      <point x="933" y="1416" type="curve" smooth="yes"/>
      <point x="1262" y="1416"/>
      <point x="1592" y="1186"/>
      <point x="1592" y="735" type="curve" smooth="yes"/>
      <point x="1592" y="283"/>
      <point x="1262" y="54"/>
    </contour>
    <contour>
      <point x="746" y="830" type="line"/>
      <point x="746" y="1133" type="line"/>
      <point x="946" y="1133" type="line" smooth="yes"/>
      <point x="1110" y="1133"/>
      <point x="1169" y="1113"/>
      <point x="1169" y="984" type="curve" smooth="yes"/>
      <point x="1169" y="877"/>
      <point x="1130" y="830"/>
      <point x="987" y="830" type="curve" smooth="yes"/>
    </contour>
    <contour>
      <point x="640" y="298" type="line"/>
      <point x="745" y="298" type="line"/>
      <point x="745" y="737" type="line"/>
      <point x="974" y="737" type="line"/>
      <point x="980" y="730"/>
      <point x="1185" y="298"/>
      <point x="1185" y="298" type="curve"/>
      <point x="1302" y="298" type="line"/>
      <point x="1302" y="298"/>
      <point x="1089" y="736"/>
      <point x="1078" y="751" type="curve"/>
      <point x="1208" y="762"/>
      <point x="1270" y="852"/>
      <point x="1270" y="988" type="curve" smooth="yes"/>
      <point x="1270" y="1150"/>
      <point x="1197" y="1226"/>
      <point x="959" y="1226" type="curve" smooth="yes"/>
      <point x="640" y="1226" type="line"/>
    </contour>
  </outline>
</glyph>
<glyph name="macron" format="1">
  <advance width="1171"/>
  <unicode hex="00AF"/>
  <outline>
    <contour>
      <point x="293" y="1343" type="line"/>
      <point x="843" y="1343" type="line"/>
      <point x="843" y="1430" type="line"/>
      <point x="293" y="1430" type="line"/>
    </contour>
    <contour>
      <point x="585" y="1062" type="move" name="_top"/>
    </contour>
  </outline>
</glyph>
<glyph name="uni00B3" format="1">
  <advance width="874"/>
  <unicode hex="00B3"/>
  <outline>
    <contour>
      <point x="438" y="642" type="curve" smooth="yes"/>
      <point x="585" y="642"/>
      <point x="717" y="720"/>
      <point x="717" y="881" type="curve" smooth="yes"/>
      <point x="717" y="993"/>
      <point x="646" y="1068"/>
      <point x="554" y="1090" type="curve"/>
      <point x="647" y="1112"/>
      <point x="708" y="1183"/>
      <point x="708" y="1286" type="curve" smooth="yes"/>
      <point x="708" y="1441"/>
      <point x="586" y="1504"/>
      <point x="450" y="1504" type="curve" smooth="yes"/>
      <point x="342" y="1504"/>
      <point x="239" y="1470"/>
      <point x="177" y="1409" type="curve"/>
      <point x="224" y="1338" type="line"/>
      <point x="276" y="1384"/>
      <point x="345" y="1414"/>
      <point x="439" y="1414" type="curve" smooth="yes"/>
      <point x="534" y="1414"/>
      <point x="606" y="1372"/>
      <point x="606" y="1279" type="curve" smooth="yes"/>
      <point x="606" y="1191"/>
      <point x="549" y="1130"/>
      <point x="426" y="1130" type="curve" smooth="yes"/>
      <point x="314" y="1130" type="line"/>
      <point x="314" y="1045" type="line"/>
      <point x="425" y="1045" type="line"/>
      <point x="428" y="1045" type="line" smooth="yes"/>
      <point x="546" y="1045"/>
      <point x="615" y="979"/>
      <point x="615" y="883" type="curve" smooth="yes"/>
      <point x="615" y="784"/>
      <point x="536" y="732"/>
      <point x="437" y="732" type="curve" smooth="yes"/>
      <point x="340" y="732"/>
      <point x="268" y="764"/>
      <point x="222" y="811" type="curve"/>
      <point x="174" y="732" type="line"/>
      <point x="235" y="673"/>
      <point x="335" y="642"/>
    </contour>
  </outline>
</glyph>
<glyph name="acute" format="1">
  <advance width="716"/>
  <unicode hex="00B4"/>
  <outline>
    <contour>
      <point x="265" y="1209" type="line"/>
      <point x="364" y="1209" type="line"/>
      <point x="652" y="1578" type="line"/>
      <point x="466" y="1578" type="line"/>
    </contour>
    <contour>
      <point x="317" y="1082" type="move" name="_top"/>
    </contour>
  </outline>
</glyph>
<glyph name="periodcentered" format="1">
  <advance width="602"/>
  <unicode hex="00B7"/>
  <outline>
    <contour>
      <point x="294" y="521" type="curve" smooth="yes"/>
      <point x="358" y="521"/>
      <point x="398" y="565"/>
      <point x="398" y="624" type="curve" smooth="yes"/>
      <point x="398" y="682"/>
      <point x="358" y="726"/>
      <point x="294" y="726" type="curve" smooth="yes"/>
      <point x="230" y="726"/>
      <point x="190" y="682"/>
      <point x="190" y="624" type="curve" smooth="yes"/>
      <point x="190" y="566"/>
      <point x="230" y="521"/>
    </contour>
  </outline>
</glyph>
<glyph name="cedilla" format="1">
  <advance width="666"/>
  <unicode hex="00B8"/>
  <outline>
    <contour>
      <point x="484" y="-198" type="curve" smooth="yes"/>
      <point x="484" y="-279"/>
      <point x="410" y="-319"/>
      <point x="327" y="-319" type="curve" smooth="yes"/>
      <point x="286" y="-319"/>
      <point x="242" y="-310"/>
      <point x="202" y="-290" type="curve"/>
      <point x="174" y="-365" type="line"/>
      <point x="222" y="-387"/>
      <point x="274" y="-398"/>
      <point x="329" y="-398" type="curve" smooth="yes"/>
      <point x="473" y="-398"/>
      <point x="580" y="-322"/>
      <point x="580" y="-202" type="curve" smooth="yes"/>
      <point x="580" y="-94"/>
      <point x="503" y="-41"/>
      <point x="410" y="-41" type="curve" smooth="yes"/>
      <point x="378" y="-41"/>
      <point x="343" y="-47"/>
      <point x="309" y="-60" type="curve"/>
      <point x="309" y="-107" type="line"/>
      <point x="332" y="-103"/>
      <point x="352" y="-101"/>
      <point x="370" y="-101" type="curve" smooth="yes"/>
      <point x="462" y="-101"/>
      <point x="484" y="-153"/>
    </contour>
    <contour>
      <point x="372" y="8" type="move" name="_bot"/>
    </contour>
  </outline>
</glyph>
<glyph name="ordmasculine" format="1">
  <advance width="941"/>
  <unicode hex="00BA"/>
  <outline>
    <contour>
      <point x="681" y="1106" type="curve" smooth="yes"/>
      <point x="681" y="939"/>
      <point x="613" y="831"/>
      <point x="468" y="831" type="curve" smooth="yes"/>
      <point x="331" y="831"/>
      <point x="263" y="940"/>
      <point x="263" y="1109" type="curve" smooth="yes"/>
      <point x="263" y="1280"/>
      <point x="332" y="1392"/>
      <point x="468" y="1392" type="curve" smooth="yes"/>
      <point x="609" y="1392"/>
      <point x="681" y="1278"/>
    </contour>
    <contour>
      <point x="133" y="1108" type="curve" smooth="yes"/>
      <point x="133" y="892"/>
      <point x="252" y="731"/>
      <point x="468" y="731" type="curve" smooth="yes"/>
      <point x="672" y="731"/>
      <point x="804" y="895"/>
      <point x="804" y="1108" type="curve" smooth="yes"/>
      <point x="804" y="1332"/>
      <point x="690" y="1491"/>
      <point x="468" y="1491" type="curve" smooth="yes"/>
      <point x="252" y="1491"/>
      <point x="133" y="1329"/>
    </contour>
  </outline>
</glyph>
<glyph name="onequarter" format="1">
  <advance width="1727"/>
  <unicode hex="00BC"/>
  <outline>
    <contour>
      <point x="1117" y="292" type="line"/>
      <point x="1392" y="700" type="line"/>
      <point x="1392" y="292" type="line"/>
    </contour>
    <contour>
      <point x="386" y="0" type="line"/>
      <point x="506" y="0" type="line"/>
      <point x="1406" y="1486" type="line"/>
      <point x="1286" y="1486" type="line"/>
    </contour>
    <contour>
      <point x="1392" y="0" type="line"/>
      <point x="1508" y="0" type="line"/>
      <point x="1508" y="197" type="line"/>
      <point x="1631" y="197" type="line"/>
      <point x="1624" y="292" type="line"/>
      <point x="1510" y="292" type="line"/>
      <point x="1510" y="851" type="line"/>
      <point x="1382" y="851" type="line"/>
      <point x="989" y="280" type="line"/>
      <point x="989" y="197" type="line"/>
      <point x="1392" y="197" type="line"/>
    </contour>
    <contour>
      <point x="131" y="611" type="line"/>
      <point x="548" y="611" type="line"/>
      <point x="548" y="712" type="line"/>
      <point x="408" y="712" type="line"/>
      <point x="408" y="1483" type="line"/>
      <point x="307" y="1483" type="line"/>
      <point x="264" y="1443"/>
      <point x="158" y="1396"/>
      <point x="122" y="1381" type="curve"/>
      <point x="122" y="1278" type="line"/>
      <point x="156" y="1293"/>
      <point x="245" y="1328"/>
      <point x="282" y="1353" type="curve"/>
      <point x="282" y="712" type="line"/>
      <point x="131" y="712" type="line"/>
    </contour>
  </outline>
</glyph>
<glyph name="onehalf" format="1">
  <advance width="1738"/>
  <unicode hex="00BD"/>
  <outline>
    <contour>
      <point x="374" y="0" type="line"/>
      <point x="495" y="0" type="line"/>
      <point x="1395" y="1486" type="line"/>
      <point x="1275" y="1486" type="line"/>
    </contour>
    <contour>
      <point x="131" y="611" type="line"/>
      <point x="548" y="611" type="line"/>
      <point x="548" y="712" type="line"/>
      <point x="408" y="712" type="line"/>
      <point x="408" y="1483" type="line"/>
      <point x="307" y="1483" type="line"/>
      <point x="264" y="1443"/>
      <point x="158" y="1396"/>
      <point x="122" y="1381" type="curve"/>
      <point x="122" y="1278" type="line"/>
      <point x="156" y="1293"/>
      <point x="245" y="1328"/>
      <point x="282" y="1353" type="curve"/>
      <point x="282" y="712" type="line"/>
      <point x="131" y="712" type="line"/>
    </contour>
    <contour>
      <point x="1121" y="0" type="line"/>
      <point x="1628" y="0" type="line"/>
      <point x="1632" y="105" type="line"/>
      <point x="1267" y="105" type="line"/>
      <point x="1285" y="123"/>
      <point x="1442" y="271"/>
      <point x="1455" y="284" type="curve" smooth="yes"/>
      <point x="1579" y="402"/>
      <point x="1641" y="477"/>
      <point x="1641" y="611" type="curve" smooth="yes"/>
      <point x="1641" y="775"/>
      <point x="1514" y="864"/>
      <point x="1363" y="864" type="curve" smooth="yes"/>
      <point x="1244" y="864"/>
      <point x="1135" y="804"/>
      <point x="1081" y="705" type="curve"/>
      <point x="1151" y="634" type="line"/>
      <point x="1209" y="718"/>
      <point x="1279" y="754"/>
      <point x="1361" y="754" type="curve" smooth="yes"/>
      <point x="1449" y="754"/>
      <point x="1519" y="704"/>
      <point x="1519" y="605" type="curve" smooth="yes"/>
      <point x="1519" y="531"/>
      <point x="1486" y="470"/>
      <point x="1373" y="354" type="curve" smooth="yes"/>
      <point x="1359" y="341"/>
      <point x="1146" y="125"/>
      <point x="1121" y="100" type="curve"/>
    </contour>
  </outline>
</glyph>
<glyph name="threequarters" format="1">
  <advance width="1744"/>
  <unicode hex="00BE"/>
  <outline>
    <contour>
      <point x="1151" y="292" type="line"/>
      <point x="1426" y="700" type="line"/>
      <point x="1426" y="292" type="line"/>
    </contour>
    <contour>
      <point x="427" y="0" type="line"/>
      <point x="548" y="0" type="line"/>
      <point x="1448" y="1486" type="line"/>
      <point x="1328" y="1486" type="line"/>
    </contour>
    <contour>
      <point x="1427" y="0" type="line"/>
      <point x="1543" y="0" type="line"/>
      <point x="1543" y="197" type="line"/>
      <point x="1666" y="197" type="line"/>
      <point x="1658" y="292" type="line"/>
      <point x="1544" y="292" type="line"/>
      <point x="1544" y="851" type="line"/>
      <point x="1417" y="851" type="line"/>
      <point x="1024" y="280" type="line"/>
      <point x="1024" y="197" type="line"/>
      <point x="1427" y="197" type="line"/>
    </contour>
    <contour>
      <point x="354" y="608" type="curve" smooth="yes"/>
      <point x="498" y="608"/>
      <point x="630" y="688"/>
      <point x="630" y="862" type="curve" smooth="yes"/>
      <point x="630" y="962"/>
      <point x="569" y="1041"/>
      <point x="465" y="1070" type="curve"/>
      <point x="568" y="1094"/>
      <point x="611" y="1191"/>
      <point x="611" y="1268" type="curve" smooth="yes"/>
      <point x="611" y="1416"/>
      <point x="493" y="1484"/>
      <point x="361" y="1484" type="curve" smooth="yes"/>
      <point x="278" y="1484"/>
      <point x="189" y="1456"/>
      <point x="122" y="1403" type="curve"/>
      <point x="170" y="1318" type="line"/>
      <point x="235" y="1359"/>
      <point x="301" y="1380"/>
      <point x="357" y="1380" type="curve" smooth="yes"/>
      <point x="436" y="1380"/>
      <point x="493" y="1338"/>
      <point x="493" y="1253" type="curve" smooth="yes"/>
      <point x="493" y="1167"/>
      <point x="429" y="1115"/>
      <point x="327" y="1115" type="curve" smooth="yes"/>
      <point x="239" y="1115" type="line"/>
      <point x="239" y="1012" type="line"/>
      <point x="330" y="1012" type="line" smooth="yes"/>
      <point x="449" y="1012"/>
      <point x="509" y="959"/>
      <point x="509" y="858" type="curve" smooth="yes"/>
      <point x="509" y="754"/>
      <point x="441" y="712"/>
      <point x="355" y="712" type="curve" smooth="yes"/>
      <point x="294" y="712"/>
      <point x="224" y="734"/>
      <point x="166" y="770" type="curve"/>
      <point x="125" y="681" type="line"/>
      <point x="190" y="634"/>
      <point x="274" y="608"/>
    </contour>
  </outline>
</glyph>
<glyph name="AE" format="1">
  <advance width="1644"/>
  <unicode hex="00C6"/>
  <outline>
    <contour>
      <point x="826" y="594" type="line"/>
      <point x="426" y="594" type="line"/>
      <point x="826" y="1325" type="line"/>
    </contour>
    <contour>
      <point x="742" y="1456" type="line"/>
      <point x="-70" y="0" type="line"/>
      <point x="99" y="0" type="line"/>
      <point x="366" y="481" type="line"/>
      <point x="826" y="481" type="line"/>
      <point x="826" y="0" type="line"/>
      <point x="1596" y="0" type="line"/>
      <point x="1607" y="123" type="line"/>
      <point x="977" y="123" type="line"/>
      <point x="977" y="699" type="line"/>
      <point x="1523" y="699" type="line"/>
      <point x="1523" y="821" type="line"/>
      <point x="977" y="821" type="line"/>
      <point x="977" y="1334" type="line"/>
      <point x="1590" y="1334" type="line"/>
      <point x="1595" y="1456" type="line"/>
    </contour>
  </outline>
</glyph>
<glyph name="multiply" format="1">
  <advance width="923"/>
  <unicode hex="00D7"/>
  <outline>
    <contour>
      <point x="98" y="954" type="line"/>
      <point x="378" y="649" type="line"/>
      <point x="87" y="334" type="line"/>
      <point x="168" y="252" type="line"/>
      <point x="458" y="563" type="line"/>
      <point x="746" y="252" type="line"/>
      <point x="823" y="337" type="line"/>
      <point x="823" y="337"/>
      <point x="553" y="634"/>
      <point x="538" y="649" type="curve"/>
      <point x="820" y="950" type="line"/>
      <point x="734" y="1035" type="line"/>
      <point x="458" y="735" type="line"/>
      <point x="180" y="1040" type="line"/>
    </contour>
  </outline>
</glyph>
<glyph name="germandbls" format="1">
  <advance width="1259"/>
  <unicode hex="00DF"/>
  <outline>
    <contour>
      <point x="836" y="-20" type="curve" smooth="yes"/>
      <point x="1033" y="-20"/>
      <point x="1152" y="102"/>
      <point x="1152" y="290" type="curve" smooth="yes"/>
      <point x="1152" y="585"/>
      <point x="758" y="687"/>
      <point x="758" y="808" type="curve" smooth="yes"/>
      <point x="758" y="904"/>
      <point x="973" y="1025"/>
      <point x="973" y="1235" type="curve" smooth="yes"/>
      <point x="973" y="1417"/>
      <point x="838" y="1547"/>
      <point x="614" y="1547" type="curve" smooth="yes"/>
      <point x="316" y="1547"/>
      <point x="176" y="1369"/>
      <point x="176" y="1075" type="curve" smooth="yes"/>
      <point x="176" y="1" type="line"/>
      <point x="326" y="1" type="line"/>
      <point x="326" y="1081" type="line" smooth="yes"/>
      <point x="326" y="1335"/>
      <point x="427" y="1428"/>
      <point x="618" y="1428" type="curve" smooth="yes"/>
      <point x="760" y="1428"/>
      <point x="827" y="1348"/>
      <point x="827" y="1236" type="curve" smooth="yes"/>
      <point x="827" y="1024"/>
      <point x="621" y="962"/>
      <point x="621" y="795" type="curve" smooth="yes"/>
      <point x="621" y="597"/>
      <point x="1007" y="503"/>
      <point x="1007" y="285" type="curve" smooth="yes"/>
      <point x="1007" y="195"/>
      <point x="956" y="103"/>
      <point x="822" y="103" type="curve" smooth="yes"/>
      <point x="706" y="103"/>
      <point x="594" y="144"/>
      <point x="536" y="175" type="curve"/>
      <point x="494" y="59" type="line"/>
      <point x="566" y="20"/>
      <point x="705" y="-20"/>
    </contour>
  </outline>
</glyph>
<glyph name="ae" format="1">
  <advance width="1681"/>
  <unicode hex="00E6"/>
  <outline>
    <contour>
      <point x="1230" y="986" type="curve" smooth="yes"/>
      <point x="1389" y="986"/>
      <point x="1457" y="888"/>
      <point x="1457" y="777" type="curve" smooth="yes"/>
      <point x="1457" y="678"/>
      <point x="1414" y="596"/>
      <point x="1097" y="596" type="curve" smooth="yes"/>
      <point x="1042" y="596"/>
      <point x="978" y="599"/>
      <point x="905" y="604" type="curve"/>
      <point x="922" y="848"/>
      <point x="1032" y="986"/>
    </contour>
    <contour>
      <point x="440" y="96" type="curve" smooth="yes"/>
      <point x="338" y="96"/>
      <point x="221" y="144"/>
      <point x="221" y="296" type="curve" smooth="yes"/>
      <point x="221" y="425"/>
      <point x="272" y="519"/>
      <point x="526" y="519" type="curve" smooth="yes"/>
      <point x="563" y="519"/>
      <point x="693" y="515"/>
      <point x="760" y="507" type="curve"/>
      <point x="760" y="490"/>
      <point x="760" y="361"/>
      <point x="767" y="344" type="curve"/>
      <point x="746" y="184"/>
      <point x="607" y="96"/>
    </contour>
    <contour>
      <point x="1597" y="788" type="curve" smooth="yes"/>
      <point x="1597" y="964"/>
      <point x="1464" y="1102"/>
      <point x="1228" y="1102" type="curve" smooth="yes"/>
      <point x="1073" y="1102"/>
      <point x="929" y="1037"/>
      <point x="857" y="876" type="curve"/>
      <point x="820" y="1043"/>
      <point x="690" y="1102"/>
      <point x="506" y="1102" type="curve" smooth="yes"/>
      <point x="345" y="1102"/>
      <point x="220" y="1058"/>
      <point x="103" y="980" type="curve"/>
      <point x="165" y="882" type="line"/>
      <point x="285" y="961"/>
      <point x="418" y="987"/>
      <point x="521" y="987" type="curve" smooth="yes"/>
      <point x="690" y="987"/>
      <point x="761" y="912"/>
      <point x="761" y="725" type="curve" smooth="yes"/>
      <point x="761" y="611" type="line"/>
      <point x="690" y="619"/>
      <point x="548" y="622"/>
      <point x="507" y="622" type="curve" smooth="yes"/>
      <point x="179" y="622"/>
      <point x="76" y="485"/>
      <point x="76" y="293" type="curve" smooth="yes"/>
      <point x="76" y="86"/>
      <point x="211" y="-11"/>
      <point x="397" y="-19" type="curve"/>
      <point x="567" y="-19"/>
      <point x="757" y="42"/>
      <point x="845" y="207" type="curve"/>
      <point x="921" y="58"/>
      <point x="1066" y="-20"/>
      <point x="1243" y="-20" type="curve" smooth="yes"/>
      <point x="1392" y="-20"/>
      <point x="1513" y="23"/>
      <point x="1606" y="81" type="curve"/>
      <point x="1559" y="184" type="line"/>
      <point x="1459" y="130"/>
      <point x="1383" y="96"/>
      <point x="1263" y="96" type="curve" smooth="yes"/>
      <point x="1061" y="96"/>
      <point x="918" y="204"/>
      <point x="902" y="497" type="curve"/>
      <point x="987" y="493"/>
      <point x="1066" y="489"/>
      <point x="1139" y="489" type="curve" smooth="yes"/>
      <point x="1417" y="489"/>
      <point x="1597" y="541"/>
    </contour>
    <contour>
      <point x="891" y="1082" type="move" name="top"/>
    </contour>
  </outline>
</glyph>
<glyph name="eth" format="1">
  <advance width="1250"/>
  <unicode hex="00F0"/>
  <outline>
    <contour>
      <point x="970" y="499" type="curve" smooth="yes"/>
      <point x="970" y="254"/>
      <point x="851" y="94"/>
      <point x="618" y="94" type="curve" smooth="yes"/>
      <point x="379" y="94"/>
      <point x="267" y="290"/>
      <point x="267" y="487" type="curve" smooth="yes"/>
      <point x="267" y="700"/>
      <point x="394" y="863"/>
      <point x="612" y="863" type="curve" smooth="yes"/>
      <point x="843" y="863"/>
      <point x="970" y="683"/>
    </contour>
    <contour>
      <point x="247" y="1595" type="line"/>
      <point x="466" y="1390" type="line"/>
      <point x="234" y="1300" type="line"/>
      <point x="279" y="1201" type="line"/>
      <point x="537" y="1302" type="line"/>
      <point x="741" y="1102"/>
      <point x="843" y="958"/>
      <point x="896" y="850" type="curve"/>
      <point x="838" y="899"/>
      <point x="765" y="977"/>
      <point x="601" y="977" type="curve" smooth="yes"/>
      <point x="322" y="977"/>
      <point x="120" y="781"/>
      <point x="120" y="489" type="curve" smooth="yes"/>
      <point x="120" y="224"/>
      <point x="285" y="-22"/>
      <point x="612" y="-22" type="curve" smooth="yes"/>
      <point x="948" y="-22"/>
      <point x="1105" y="206"/>
      <point x="1105" y="493" type="curve" smooth="yes"/>
      <point x="1105" y="629"/>
      <point x="1072" y="772"/>
      <point x="1023" y="872" type="curve" smooth="yes"/>
      <point x="958" y="1000"/>
      <point x="859" y="1133"/>
      <point x="655" y="1352" type="curve"/>
      <point x="916" y="1451" type="line"/>
      <point x="871" y="1547" type="line"/>
      <point x="577" y="1434" type="line"/>
      <point x="415" y="1595" type="line"/>
    </contour>
  </outline>
</glyph>
<glyph name="Hbar" format="1">
  <advance width="1478"/>
  <unicode hex="0126"/>
  <outline>
    <contour>
      <point x="72" y="1251" type="line"/>
      <point x="72" y="1146" type="line"/>
      <point x="1397" y="1146" type="line"/>
      <point x="1397" y="1251" type="line"/>
    </contour>
    <component base="H"/>
  </outline>
</glyph>
<glyph name="dotlessi" format="1">
  <advance width="507"/>
  <unicode hex="0131"/>
  <outline>
    <contour>
      <point x="188" y="1082" type="line"/>
      <point x="188" y="0" type="line"/>
      <point x="338" y="0" type="line"/>
      <point x="338" y="1082" type="line"/>
    </contour>
    <contour>
      <point x="268" y="1082" type="move" name="top"/>
    </contour>
  </outline>
</glyph>
<glyph name="kgreenlandic" format="1">
  <advance width="1074"/>
  <unicode hex="0138"/>
  <outline>
    <contour>
      <point x="162" y="0" type="line"/>
      <point x="312" y="0" type="line"/>
      <point x="312" y="398" type="line"/>
      <point x="443" y="512" type="line"/>
      <point x="877" y="0" type="line"/>
      <point x="1039" y="0" type="line"/>
      <point x="1039" y="22" type="line"/>
      <point x="546" y="587" type="line"/>
      <point x="1011" y="1060" type="line"/>
      <point x="1011" y="1082" type="line"/>
      <point x="842" y="1082" type="line"/>
      <point x="306" y="528" type="line"/>
      <point x="312" y="745" type="line"/>
      <point x="312" y="1082" type="line"/>
      <point x="162" y="1082" type="line"/>
    </contour>
  </outline>
</glyph>
<glyph name="Eng" format="1">
  <advance width="1513"/>
  <unicode hex="014A"/>
  <outline>
    <contour>
      <point x="1169" y="838" type="line"/>
      <point x="1170" y="-6" type="line" smooth="yes"/>
      <point x="1170" y="-225"/>
      <point x="1114" y="-307"/>
      <point x="735" y="-307" type="curve"/>
      <point x="738" y="-426" type="line"/>
      <point x="1156" y="-426"/>
      <point x="1309" y="-321"/>
      <point x="1309" y="-10" type="curve" smooth="yes"/>
      <point x="1309" y="838" type="line"/>
    </contour>
    <component base="N"/>
  </outline>
</glyph>
<glyph name="OE" format="1">
  <advance width="2447"/>
  <unicode hex="0152"/>
  <outline>
    <contour>
      <point x="1296" y="719" type="curve" smooth="yes"/>
      <point x="1296" y="357"/>
      <point x="1167" y="107"/>
      <point x="802" y="107" type="curve" smooth="yes"/>
      <point x="436" y="107"/>
      <point x="306" y="357"/>
      <point x="306" y="719" type="curve" smooth="yes"/>
      <point x="306" y="1098"/>
      <point x="449" y="1349"/>
      <point x="804" y="1349" type="curve" smooth="yes"/>
      <point x="1159" y="1349"/>
      <point x="1296" y="1095"/>
    </contour>
    <contour>
      <point x="147" y="720" type="curve" smooth="yes"/>
      <point x="147" y="272"/>
      <point x="352" y="-20"/>
      <point x="804" y="-20" type="curve" smooth="yes"/>
      <point x="1030" y="-20"/>
      <point x="1200" y="66"/>
      <point x="1297" y="215" type="curve"/>
      <point x="1297" y="0" type="line"/>
      <point x="2228" y="0" type="line"/>
      <point x="2239" y="123" type="line"/>
      <point x="1455" y="123" type="line"/>
      <point x="1455" y="691" type="line"/>
      <point x="2156" y="691" type="line"/>
      <point x="2156" y="813" type="line"/>
      <point x="1455" y="813" type="line"/>
      <point x="1455" y="1334" type="line"/>
      <point x="2222" y="1334" type="line"/>
      <point x="2228" y="1456" type="line"/>
      <point x="1297" y="1456" type="line"/>
      <point x="1297" y="1231" type="line"/>
      <point x="1199" y="1387"/>
      <point x="1026" y="1476"/>
      <point x="805" y="1476" type="curve" smooth="yes"/>
      <point x="363" y="1476"/>
      <point x="147" y="1180"/>
    </contour>
  </outline>
</glyph>
<glyph name="florin" format="1">
  <advance width="994"/>
  <unicode hex="0192"/>
  <outline>
    <contour>
      <point x="545" y="1225" type="curve" smooth="yes"/>
      <point x="506" y="1028" type="line"/>
      <point x="344" y="1028" type="line"/>
      <point x="329" y="950" type="line"/>
      <point x="493" y="950" type="line"/>
      <point x="298" y="129" type="line" smooth="yes"/>
      <point x="263" y="-20"/>
      <point x="277" y="-165"/>
      <point x="105" y="-165" type="curve" smooth="yes"/>
      <point x="79" y="-165"/>
      <point x="49" y="-162"/>
      <point x="15" y="-155" type="curve"/>
      <point x="-1" y="-232" type="line"/>
      <point x="32" y="-241"/>
      <point x="63" y="-245"/>
      <point x="94" y="-245" type="curve" smooth="yes"/>
      <point x="258" y="-245"/>
      <point x="387" y="-118"/>
      <point x="444" y="128" type="curve" smooth="yes"/>
      <point x="638" y="950" type="line"/>
      <point x="860" y="950" type="line"/>
      <point x="875" y="1028" type="line"/>
      <point x="655" y="1028" type="line"/>
      <point x="694" y="1234" type="line" smooth="yes"/>
      <point x="716" y="1347"/>
      <point x="745" y="1439"/>
      <point x="843" y="1439" type="curve" smooth="yes"/>
      <point x="902" y="1439"/>
      <point x="933" y="1390"/>
      <point x="933" y="1285" type="curve"/>
      <point x="1052" y="1285" type="line"/>
      <point x="1052" y="1469"/>
      <point x="952" y="1518"/>
      <point x="837" y="1518" type="curve" smooth="yes"/>
      <point x="662" y="1518"/>
      <point x="579" y="1397"/>
    </contour>
  </outline>
</glyph>
<glyph name="uni0259" format="1">
  <advance width="1127"/>
  <unicode hex="0259"/>
  <outline>
    <contour>
      <point x="873" y="462" type="line"/>
      <point x="853" y="240"/>
      <point x="724" y="95"/>
      <point x="534" y="95" type="curve" smooth="yes"/>
      <point x="346" y="95"/>
      <point x="260" y="228"/>
      <point x="256" y="462" type="curve"/>
    </contour>
    <contour>
      <point x="137" y="563" type="line"/>
      <point x="137" y="559"/>
      <point x="129" y="489"/>
      <point x="129" y="462" type="curve" smooth="yes"/>
      <point x="129" y="162"/>
      <point x="285" y="-20"/>
      <point x="539" y="-20" type="curve" smooth="yes"/>
      <point x="804" y="-20"/>
      <point x="1029" y="185"/>
      <point x="1029" y="547" type="curve" smooth="yes"/>
      <point x="1029" y="892"/>
      <point x="809" y="1105"/>
      <point x="523" y="1105" type="curve" smooth="yes"/>
      <point x="373" y="1105"/>
      <point x="251" y="1062"/>
      <point x="159" y="1003" type="curve"/>
      <point x="196" y="900" type="line"/>
      <point x="208" y="900" type="line"/>
      <point x="300" y="952"/>
      <point x="382" y="990"/>
      <point x="504" y="990" type="curve" smooth="yes"/>
      <point x="707" y="990"/>
      <point x="863" y="863"/>
      <point x="877" y="563" type="curve"/>
    </contour>
  </outline>
</glyph>
<glyph name="uni02BC" format="1">
  <advance width="643"/>
  <unicode hex="02BC"/>
  <outline>
    <contour>
      <point x="133" y="1170" type="curve"/>
      <point x="247" y="1170" type="line"/>
      <point x="247" y="1170"/>
      <point x="351" y="1535"/>
      <point x="362" y="1599" type="curve"/>
      <point x="201" y="1599" type="line"/>
      <point x="198" y="1567"/>
      <point x="133" y="1170"/>
    </contour>
  </outline>
</glyph>
<glyph name="circumflex" format="1">
  <advance width="874"/>
  <unicode hex="02C6"/>
  <outline>
    <contour>
      <point x="149" y="1237" type="line"/>
      <point x="277" y="1237" type="line"/>
      <point x="424" y="1471" type="line"/>
      <point x="571" y="1237" type="line"/>
      <point x="699" y="1237" type="line"/>
      <point x="506" y="1571" type="line"/>
      <point x="342" y="1571" type="line"/>
    </contour>
    <contour>
      <point x="431" y="1082" type="move" name="_top"/>
    </contour>
  </outline>
</glyph>
<glyph name="breve" format="1">
  <advance width="858"/>
  <unicode hex="02D8"/>
  <outline>
    <contour>
      <point x="417" y="1279" type="curve" smooth="yes"/>
      <point x="545" y="1279"/>
      <point x="650" y="1352"/>
      <point x="650" y="1515" type="curve"/>
      <point x="555" y="1515" type="line"/>
      <point x="555" y="1416"/>
      <point x="480" y="1374"/>
      <point x="417" y="1374" type="curve" smooth="yes"/>
      <point x="355" y="1374"/>
      <point x="285" y="1416"/>
      <point x="285" y="1515" type="curve"/>
      <point x="188" y="1515" type="line"/>
      <point x="188" y="1351"/>
      <point x="291" y="1279"/>
    </contour>
    <contour>
      <point x="422" y="1062" type="move" name="_top"/>
    </contour>
  </outline>
</glyph>
<glyph name="dotaccent" format="1">
  <advance width="405"/>
  <unicode hex="02D9"/>
  <outline>
    <contour>
      <point x="315" y="1423" type="curve" smooth="yes"/>
      <point x="315" y="1492"/>
      <point x="275" y="1533"/>
      <point x="201" y="1533" type="curve" smooth="yes"/>
      <point x="127" y="1533"/>
      <point x="87" y="1492"/>
      <point x="87" y="1423" type="curve" smooth="yes"/>
      <point x="87" y="1353"/>
      <point x="127" y="1311"/>
      <point x="201" y="1311" type="curve" smooth="yes"/>
      <point x="275" y="1311"/>
      <point x="315" y="1353"/>
    </contour>
    <contour>
      <point x="200" y="1082" type="move" name="_top"/>
    </contour>
  </outline>
</glyph>
<glyph name="ring" format="1">
  <advance width="685"/>
  <unicode hex="02DA"/>
  <outline>
    <contour>
      <point x="335" y="1199" type="curve" smooth="yes"/>
      <point x="440" y="1199"/>
      <point x="519" y="1278"/>
      <point x="519" y="1378" type="curve" smooth="yes"/>
      <point x="519" y="1477"/>
      <point x="440" y="1554"/>
      <point x="335" y="1554" type="curve" smooth="yes"/>
      <point x="229" y="1554"/>
      <point x="152" y="1477"/>
      <point x="152" y="1378" type="curve" smooth="yes"/>
      <point x="152" y="1278"/>
      <point x="230" y="1199"/>
    </contour>
    <contour>
      <point x="335" y="1274" type="curve" smooth="yes"/>
      <point x="277" y="1274"/>
      <point x="237" y="1320"/>
      <point x="237" y="1376" type="curve" smooth="yes"/>
      <point x="237" y="1431"/>
      <point x="278" y="1477"/>
      <point x="335" y="1477" type="curve" smooth="yes"/>
      <point x="391" y="1477"/>
      <point x="434" y="1431"/>
      <point x="434" y="1376" type="curve" smooth="yes"/>
      <point x="434" y="1321"/>
      <point x="391" y="1274"/>
    </contour>
    <contour>
      <point x="334" y="1062" type="move" name="_top"/>
    </contour>
  </outline>
</glyph>
<glyph name="tilde" format="1">
  <advance width="995"/>
  <unicode hex="02DC"/>
  <outline>
    <contour>
      <point x="179" y="1304" type="curve"/>
      <point x="259" y="1304" type="line"/>
      <point x="266" y="1374"/>
      <point x="291" y="1404"/>
      <point x="327" y="1404" type="curve" smooth="yes"/>
      <point x="401" y="1404"/>
      <point x="525" y="1304"/>
      <point x="628" y="1304" type="curve" smooth="yes"/>
      <point x="705" y="1304"/>
      <point x="767" y="1359"/>
      <point x="767" y="1502" type="curve"/>
      <point x="684" y="1502" type="line"/>
      <point x="676" y="1436"/>
      <point x="655" y="1414"/>
      <point x="622" y="1414" type="curve" smooth="yes"/>
      <point x="558" y="1414"/>
      <point x="452" y="1503"/>
      <point x="334" y="1503" type="curve" smooth="yes"/>
      <point x="245" y="1503"/>
      <point x="179" y="1446"/>
    </contour>
    <contour>
      <point x="497" y="1062" type="move" name="_top"/>
    </contour>
  </outline>
</glyph>
<glyph name="hungarumlaut" format="1">
  <advance width="769"/>
  <unicode hex="02DD"/>
  <outline>
    <contour>
      <point x="418" y="1244" type="line"/>
      <point x="512" y="1244" type="line"/>
      <point x="723" y="1581" type="line"/>
      <point x="568" y="1581" type="line"/>
    </contour>
    <contour>
      <point x="166" y="1244" type="line"/>
      <point x="261" y="1244" type="line"/>
      <point x="430" y="1581" type="line"/>
      <point x="291" y="1581" type="line"/>
    </contour>
    <contour>
      <point x="332" y="1062" type="move" name="_top"/>
    </contour>
  </outline>
</glyph>
<glyph name="uni030F" format="1">
  <advance width="834"/>
  <unicode hex="030F"/>
  <outline>
    <contour>
      <point x="527" y="1244" type="line"/>
      <point x="623" y="1244" type="line"/>
      <point x="497" y="1581" type="line"/>
      <point x="358" y="1581" type="line"/>
    </contour>
    <contour>
      <point x="276" y="1244" type="line"/>
      <point x="370" y="1244" type="line"/>
      <point x="220" y="1581" type="line"/>
      <point x="65" y="1581" type="line"/>
    </contour>
    <contour>
      <point x="459" y="1062" type="move" name="_top"/>
    </contour>
  </outline>
</glyph>
<glyph name="uni0311" format="1">
  <advance width="777"/>
  <unicode hex="0311"/>
  <outline>
    <contour>
      <point x="167" y="1279" type="curve"/>
      <point x="265" y="1279" type="line"/>
      <point x="265" y="1378"/>
      <point x="334" y="1421"/>
      <point x="397" y="1421" type="curve" smooth="yes"/>
      <point x="460" y="1421"/>
      <point x="535" y="1378"/>
      <point x="535" y="1279" type="curve"/>
      <point x="630" y="1279" type="line"/>
      <point x="630" y="1442"/>
      <point x="524" y="1515"/>
      <point x="397" y="1515" type="curve" smooth="yes"/>
      <point x="270" y="1515"/>
      <point x="167" y="1443"/>
    </contour>
    <contour>
      <point x="402" y="1062" type="move" name="_top"/>
    </contour>
  </outline>
</glyph>
<glyph name="uni0312" format="1">
  <advance width="600"/>
  <unicode hex="0312"/>
  <outline>
    <contour>
      <point x="211" y="1308" type="curve"/>
      <point x="208" y="1285" type="line"/>
      <point x="379" y="1285" type="line"/>
      <point x="379" y="1370"/>
      <point x="403" y="1782"/>
      <point x="403" y="1782" type="curve"/>
      <point x="308" y="1782" type="line"/>
      <point x="308" y="1782"/>
      <point x="211" y="1350"/>
    </contour>
    <contour>
      <point x="298" y="1062" type="move" name="_top"/>
    </contour>
  </outline>
</glyph>
<glyph name="uni0326" format="1">
  <advance width="608"/>
  <unicode hex="0326"/>
  <outline>
    <contour>
      <point x="211" y="-515" type="curve"/>
      <point x="308" y="-515" type="line"/>
      <point x="308" y="-515"/>
      <point x="397" y="-195"/>
      <point x="395" y="-143" type="curve"/>
      <point x="248" y="-143" type="line"/>
      <point x="248" y="-228"/>
      <point x="211" y="-515"/>
    </contour>
    <contour>
      <point x="324" y="0" type="move" name="_bot"/>
    </contour>
  </outline>
</glyph>
<glyph name="uni0394" format="1">
  <advance width="1339"/>
  <unicode hex="0394"/>
  <outline>
    <contour>
      <point x="252" y="134" type="line"/>
      <point x="659" y="1329" type="line"/>
      <point x="1077" y="134" type="line"/>
    </contour>
    <contour>
      <point x="62" y="0" type="line"/>
      <point x="1268" y="0" type="line"/>
      <point x="735" y="1486" type="line"/>
      <point x="585" y="1486" type="line"/>
    </contour>
  </outline>
</glyph>
<glyph name="Sigma" format="1">
  <advance width="1113"/>
  <unicode hex="03A3"/>
  <outline>
    <contour>
      <point x="101" y="1477" type="line"/>
      <point x="101" y="1388" type="line"/>
      <point x="611" y="622" type="line"/>
      <point x="78" y="-144" type="line"/>
      <point x="78" y="-229" type="line"/>
      <point x="1061" y="-229" type="line"/>
      <point x="1061" y="-85" type="line"/>
      <point x="281" y="-85" type="line"/>
      <point x="797" y="618" type="line"/>
      <point x="299" y="1343" type="line"/>
      <point x="1016" y="1343" type="line"/>
      <point x="1016" y="1477" type="line"/>
    </contour>
  </outline>
</glyph>
<glyph name="emdash" format="1">
  <advance width="2162"/>
  <unicode hex="2014"/>
  <outline>
    <contour>
      <point x="60" y="533" type="line"/>
      <point x="2102" y="533" type="line"/>
      <point x="2102" y="655" type="line"/>
      <point x="60" y="655" type="line"/>
    </contour>
  </outline>
</glyph>
<glyph name="quotesinglbase" format="1">
  <advance width="442"/>
  <unicode hex="201A"/>
  <outline>
    <contour>
      <point x="97" y="-296" type="line"/>
      <point x="196" y="-296" type="line"/>
      <point x="306" y="166" type="line"/>
      <point x="157" y="166" type="line"/>
    </contour>
  </outline>
</glyph>
<glyph name="daggerdbl" format="1">
  <advance width="1029"/>
  <unicode hex="2021"/>
  <outline>
    <contour>
      <point x="456" y="1471" type="line"/>
      <point x="456" y="1082" type="line"/>
      <point x="177" y="1082" type="line"/>
      <point x="177" y="995" type="line"/>
      <point x="456" y="995" type="line"/>
      <point x="456" y="547" type="line"/>
      <point x="177" y="547" type="line"/>
      <point x="177" y="463" type="line"/>
      <point x="456" y="463" type="line"/>
      <point x="456" y="94" type="line"/>
      <point x="554" y="94" type="line"/>
      <point x="554" y="463" type="line"/>
      <point x="828" y="463" type="line"/>
      <point x="828" y="547" type="line"/>
      <point x="554" y="547" type="line"/>
      <point x="554" y="995" type="line"/>
      <point x="829" y="995" type="line"/>
      <point x="829" y="1082" type="line"/>
      <point x="550" y="1082" type="line"/>
      <point x="550" y="1471" type="line"/>
    </contour>
  </outline>
</glyph>
<glyph name="perthousand" format="1">
  <advance width="2336"/>
  <unicode hex="2030"/>
  <outline>
    <contour>
      <point x="1878" y="-3" type="curve" smooth="yes"/>
      <point x="2102" y="-3"/>
      <point x="2184" y="163"/>
      <point x="2184" y="378" type="curve" smooth="yes"/>
      <point x="2184" y="597"/>
      <point x="2105" y="758"/>
      <point x="1878" y="758" type="curve" smooth="yes"/>
      <point x="1656" y="758"/>
      <point x="1573" y="594"/>
      <point x="1573" y="378" type="curve" smooth="yes"/>
      <point x="1573" y="163"/>
      <point x="1652" y="-3"/>
    </contour>
    <contour>
      <point x="1879" y="86" type="curve" smooth="yes"/>
      <point x="1720" y="86"/>
      <point x="1682" y="210"/>
      <point x="1682" y="378" type="curve" smooth="yes"/>
      <point x="1682" y="542"/>
      <point x="1720" y="667"/>
      <point x="1879" y="667" type="curve" smooth="yes"/>
      <point x="2038" y="667"/>
      <point x="2075" y="548"/>
      <point x="2075" y="378" type="curve" smooth="yes"/>
      <point x="2075" y="215"/>
      <point x="2039" y="86"/>
    </contour>
    <component base="percent" xOffset="8"/>
  </outline>
</glyph>
<glyph name="guilsinglleft" format="1">
  <advance width="613"/>
  <unicode hex="2039"/>
  <outline>
    <contour>
      <point x="386" y="146" type="line"/>
      <point x="527" y="146" type="line"/>
      <point x="243" y="555" type="line"/>
      <point x="534" y="964" type="line"/>
      <point x="390" y="964" type="line"/>
      <point x="95" y="553" type="line"/>
    </contour>
  </outline>
</glyph>
<glyph name="guilsinglright" format="1">
  <advance width="748"/>
  <unicode hex="203A"/>
  <outline>
    <contour>
      <point x="157" y="146" type="line"/>
      <point x="299" y="146" type="line"/>
      <point x="598" y="572" type="line"/>
      <point x="296" y="1002" type="line"/>
      <point x="153" y="1002" type="line"/>
      <point x="444" y="571" type="line"/>
    </contour>
  </outline>
</glyph>
<glyph name="afii61289" format="1">
  <advance width="1181"/>
  <unicode hex="2113"/>
  <outline>
    <contour>
      <point x="587" y="752" type="line"/>
      <point x="725" y="1354" type="line" smooth="yes"/>
      <point x="759" y="1501"/>
      <point x="840" y="1556"/>
      <point x="916" y="1556" type="curve" smooth="yes"/>
      <point x="1002" y="1556"/>
      <point x="1083" y="1485"/>
      <point x="1083" y="1396" type="curve" smooth="yes"/>
      <point x="1083" y="1327"/>
      <point x="974" y="1100"/>
      <point x="800" y="943" type="curve" smooth="yes"/>
    </contour>
    <contour>
      <point x="308" y="253" type="curve" smooth="yes"/>
      <point x="308" y="59"/>
      <point x="402" y="-20"/>
      <point x="549" y="-20" type="curve" smooth="yes"/>
      <point x="766" y="-20"/>
      <point x="910" y="98"/>
      <point x="910" y="98" type="curve"/>
      <point x="887" y="200" type="line"/>
      <point x="785" y="142"/>
      <point x="696" y="108"/>
      <point x="614" y="108" type="curve" smooth="yes"/>
      <point x="521" y="108"/>
      <point x="482" y="157"/>
      <point x="482" y="252" type="curve" smooth="yes"/>
      <point x="482" y="297"/>
      <point x="491" y="352"/>
      <point x="507" y="417" type="curve" smooth="yes"/>
      <point x="556" y="619" type="line"/>
      <point x="853" y="865" type="line" smooth="yes"/>
      <point x="1094" y="1064"/>
      <point x="1187" y="1187"/>
      <point x="1187" y="1397" type="curve" smooth="yes"/>
      <point x="1187" y="1597"/>
      <point x="1050" y="1683"/>
      <point x="907" y="1683" type="curve" smooth="yes"/>
      <point x="781" y="1683"/>
      <point x="652" y="1623"/>
      <point x="590" y="1396" type="curve" smooth="yes"/>
      <point x="383" y="631" type="line"/>
      <point x="83" y="404" type="line"/>
      <point x="125" y="334" type="line"/>
      <point x="348" y="501" type="line"/>
      <point x="321" y="404"/>
      <point x="308" y="322"/>
    </contour>
  </outline>
</glyph>
<glyph name="trademark" format="1">
  <advance width="2151"/>
  <unicode hex="2122"/>
  <outline>
    <contour>
      <point x="391" y="528" type="line"/>
      <point x="510" y="528" type="line"/>
      <point x="510" y="1363" type="line"/>
      <point x="821" y="1363" type="line"/>
      <point x="821" y="1460" type="line"/>
      <point x="85" y="1460" type="line"/>
      <point x="85" y="1363" type="line"/>
      <point x="391" y="1363" type="line"/>
    </contour>
    <contour>
      <point x="962" y="528" type="line"/>
      <point x="1068" y="528" type="line"/>
      <point x="1074" y="1314" type="line"/>
      <point x="1395" y="639" type="line"/>
      <point x="1485" y="639" type="line"/>
      <point x="1802" y="1307" type="line"/>
      <point x="1808" y="528" type="line"/>
      <point x="1914" y="528" type="line"/>
      <point x="1898" y="1460" type="line"/>
      <point x="1773" y="1460" type="line"/>
      <point x="1441" y="766" type="line"/>
      <point x="1105" y="1460" type="line"/>
      <point x="978" y="1460" type="line"/>
    </contour>
  </outline>
</glyph>
<glyph name="estimated" format="1">
  <advance width="1098"/>
  <unicode hex="212E"/>
  <outline>
    <contour>
      <point x="967" y="570" type="curve"/>
      <point x="313" y="570" type="line"/>
      <point x="327" y="819"/>
      <point x="470" y="989"/>
      <point x="635" y="989" type="curve" smooth="yes"/>
      <point x="833" y="989"/>
      <point x="967" y="793"/>
    </contour>
    <contour>
      <point x="104" y="513" type="curve" smooth="yes"/>
      <point x="104" y="209"/>
      <point x="282" y="-20"/>
      <point x="646" y="-20" type="curve" smooth="yes"/>
      <point x="843" y="-20"/>
      <point x="971" y="66"/>
      <point x="1066" y="178" type="curve"/>
      <point x="1016" y="226" type="line"/>
      <point x="923" y="127"/>
      <point x="817" y="50"/>
      <point x="646" y="50" type="curve" smooth="yes"/>
      <point x="428" y="50"/>
      <point x="312" y="232"/>
      <point x="311" y="494" type="curve"/>
      <point x="1073" y="494" type="line"/>
      <point x="1073" y="825"/>
      <point x="933" y="1046"/>
      <point x="629" y="1046" type="curve" smooth="yes"/>
      <point x="322" y="1046"/>
      <point x="104" y="817"/>
    </contour>
  </outline>
</glyph>
<glyph name="Delta" format="1">
  <advance width="1294"/>
  <unicode hex="2206"/>
  <outline>
    <contour>
      <point x="676" y="1216" type="line"/>
      <point x="1044" y="158" type="line"/>
      <point x="246" y="158" type="line"/>
      <point x="610" y="1216" type="line"/>
      <point x="642" y="1334" type="line"/>
    </contour>
    <contour>
      <point x="565" y="1530" type="line"/>
      <point x="73" y="85" type="line"/>
      <point x="73" y="0" type="line"/>
      <point x="1222" y="0" type="line"/>
      <point x="1222" y="85" type="line"/>
      <point x="731" y="1530" type="line"/>
    </contour>
  </outline>
</glyph>
<glyph name="minus" format="1">
  <advance width="1148"/>
  <unicode hex="2212"/>
  <outline>
    <contour>
      <point x="97" y="669" type="line"/>
      <point x="97" y="540" type="line"/>
      <point x="1049" y="540" type="line"/>
      <point x="1049" y="669" type="line"/>
    </contour>
  </outline>
</glyph>
<glyph name="radical" format="1">
  <advance width="1157"/>
  <unicode hex="221A"/>
  <outline>
    <contour>
      <point x="1009" y="1709" type="line"/>
      <point x="902" y="1262"/>
      <point x="714" y="493"/>
      <point x="609" y="47" type="curve"/>
      <point x="519" y="335"/>
      <point x="412" y="606"/>
      <point x="314" y="886" type="curve"/>
      <point x="63" y="830" type="line"/>
      <point x="77" y="722" type="line"/>
      <point x="224" y="753" type="line"/>
      <point x="558" y="-162" type="line"/>
      <point x="680" y="-162" type="line"/>
      <point x="1115" y="1709" type="line"/>
    </contour>
  </outline>
</glyph>
<glyph name="infinity" format="1">
  <advance width="1665"/>
  <unicode hex="221E"/>
  <outline>
    <contour>
      <point x="1467" y="655" type="curve" smooth="yes"/>
      <point x="1467" y="491"/>
      <point x="1389" y="367"/>
      <point x="1236" y="367" type="curve" smooth="yes"/>
      <point x="1115" y="367"/>
      <point x="1021" y="455"/>
      <point x="894" y="632" type="curve"/>
      <point x="989" y="776"/>
      <point x="1097" y="890"/>
      <point x="1232" y="890" type="curve" smooth="yes"/>
      <point x="1370" y="890"/>
      <point x="1467" y="785"/>
    </contour>
    <contour>
      <point x="769" y="625" type="curve"/>
      <point x="669" y="476"/>
      <point x="558" y="367"/>
      <point x="427" y="367" type="curve" smooth="yes"/>
      <point x="279" y="367"/>
      <point x="180" y="492"/>
      <point x="180" y="629" type="curve" smooth="yes"/>
      <point x="180" y="773"/>
      <point x="273" y="890"/>
      <point x="420" y="890" type="curve" smooth="yes"/>
      <point x="561" y="890"/>
      <point x="670" y="785"/>
    </contour>
    <contour>
      <point x="831" y="727" type="curve"/>
      <point x="703" y="900"/>
      <point x="581" y="1004"/>
      <point x="421" y="1004" type="curve" smooth="yes"/>
      <point x="226" y="1004"/>
      <point x="76" y="850"/>
      <point x="76" y="650" type="curve" smooth="yes"/>
      <point x="76" y="431"/>
      <point x="207" y="251"/>
      <point x="425" y="251" type="curve" smooth="yes"/>
      <point x="583" y="251"/>
      <point x="707" y="358"/>
      <point x="832" y="526" type="curve"/>
      <point x="970" y="339"/>
      <point x="1090" y="251"/>
      <point x="1234" y="251" type="curve" smooth="yes"/>
      <point x="1431" y="251"/>
      <point x="1580" y="407"/>
      <point x="1580" y="632" type="curve" smooth="yes"/>
      <point x="1580" y="849"/>
      <point x="1454" y="1004"/>
      <point x="1236" y="1004" type="curve" smooth="yes"/>
      <point x="1073" y="1004"/>
      <point x="951" y="896"/>
    </contour>
  </outline>
</glyph>
<glyph name="approxequal" format="1">
  <advance width="1171"/>
  <unicode hex="2248"/>
  <outline>
    <contour>
      <point x="840" y="572" type="curve" smooth="yes"/>
      <point x="778" y="572"/>
      <point x="697" y="612"/>
      <point x="600" y="655" type="curve" smooth="yes"/>
      <point x="497" y="702"/>
      <point x="430" y="728"/>
      <point x="349" y="728" type="curve" smooth="yes"/>
      <point x="226" y="728"/>
      <point x="142" y="648"/>
      <point x="100" y="529" type="curve"/>
      <point x="142" y="449" type="line"/>
      <point x="183" y="546"/>
      <point x="261" y="614"/>
      <point x="348" y="614" type="curve" smooth="yes"/>
      <point x="418" y="614"/>
      <point x="495" y="579"/>
      <point x="595" y="533" type="curve" smooth="yes"/>
      <point x="687" y="490"/>
      <point x="767" y="459"/>
      <point x="840" y="459" type="curve" smooth="yes"/>
      <point x="958" y="459"/>
      <point x="1032" y="532"/>
      <point x="1072" y="660" type="curve"/>
      <point x="1026" y="734" type="line"/>
      <point x="995" y="640"/>
      <point x="922" y="572"/>
    </contour>
    <contour>
      <point x="840" y="910" type="curve" smooth="yes"/>
      <point x="778" y="910"/>
      <point x="697" y="950"/>
      <point x="600" y="993" type="curve" smooth="yes"/>
      <point x="497" y="1040"/>
      <point x="430" y="1066"/>
      <point x="349" y="1066" type="curve" smooth="yes"/>
      <point x="226" y="1066"/>
      <point x="142" y="986"/>
      <point x="100" y="867" type="curve"/>
      <point x="142" y="787" type="line"/>
      <point x="183" y="884"/>
      <point x="261" y="952"/>
      <point x="348" y="952" type="curve" smooth="yes"/>
      <point x="418" y="952"/>
      <point x="495" y="917"/>
      <point x="595" y="871" type="curve" smooth="yes"/>
      <point x="687" y="828"/>
      <point x="767" y="797"/>
      <point x="840" y="797" type="curve" smooth="yes"/>
      <point x="958" y="797"/>
      <point x="1032" y="870"/>
      <point x="1072" y="998" type="curve"/>
      <point x="1026" y="1072" type="line"/>
      <point x="995" y="978"/>
      <point x="922" y="910"/>
    </contour>
  </outline>
</glyph>
<glyph name="notequal" format="1">
  <advance width="1096"/>
  <unicode hex="2260"/>
  <outline>
    <contour>
      <point x="301" y="49" type="line"/>
      <point x="451" y="358" type="line"/>
      <point x="996" y="358" type="line"/>
      <point x="991" y="466" type="line"/>
      <point x="498" y="466" type="line"/>
      <point x="670" y="797" type="line"/>
      <point x="996" y="797" type="line"/>
      <point x="988" y="905" type="line"/>
      <point x="716" y="905" type="line"/>
      <point x="842" y="1194" type="line"/>
      <point x="752" y="1204" type="line"/>
      <point x="606" y="905" type="line"/>
      <point x="77" y="905" type="line"/>
      <point x="83" y="796" type="line"/>
      <point x="559" y="796" type="line"/>
      <point x="392" y="466" type="line"/>
      <point x="78" y="466" type="line"/>
      <point x="83" y="358" type="line"/>
      <point x="338" y="358" type="line"/>
      <point x="212" y="63" type="line"/>
    </contour>
  </outline>
</glyph>
<glyph name="lessequal" format="1">
  <advance width="1204"/>
  <unicode hex="2264"/>
  <outline>
    <contour>
      <point x="127" y="6" type="line"/>
      <point x="1068" y="6" type="line"/>
      <point x="1068" y="123" type="line"/>
      <point x="127" y="124" type="line"/>
    </contour>
    <contour>
      <point x="1035" y="235" type="line"/>
      <point x="1035" y="360" type="line"/>
      <point x="317" y="756" type="line"/>
      <point x="1032" y="1178" type="line"/>
      <point x="1032" y="1307" type="line"/>
      <point x="153" y="793" type="line"/>
      <point x="153" y="719" type="line"/>
    </contour>
  </outline>
</glyph>
<glyph name="greaterequal" format="1">
  <advance width="1203"/>
  <unicode hex="2265"/>
  <outline>
    <contour>
      <point x="128" y="9" type="line"/>
      <point x="1067" y="9" type="line"/>
      <point x="1067" y="128" type="line"/>
      <point x="128" y="127" type="line"/>
    </contour>
    <contour>
      <point x="161" y="238" type="line"/>
      <point x="1046" y="721" type="line"/>
      <point x="1046" y="795" type="line"/>
      <point x="166" y="1308" type="line"/>
      <point x="166" y="1179" type="line"/>
      <point x="900" y="758" type="line"/>
      <point x="161" y="364" type="line"/>
    </contour>
  </outline>
</glyph>
<glyph name="caron.alt" format="1">
  <advance width="766"/>
  <outline>
    <contour>
      <point x="494" y="1169" type="line"/>
      <point x="609" y="1169" type="line"/>
      <point x="692" y="1538" type="line"/>
      <point x="536" y="1538" type="line"/>
    </contour>
    <contour>
      <point x="267" y="1082" type="move" name="_caron.alt"/>
    </contour>
  </outline>
</glyph>
